<svg xmlns="http://www.w3.org/2000/svg" xmlns:xlink="http://www.w3.org/1999/xlink" width="1080" zoomAndPan="magnify" viewBox="0 0 810 809.999993" height="1080" preserveAspectRatio="xMidYMid meet" version="1.0"><defs><clipPath id="39efc5f06e"><path d="M 126.347656 154 L 676 154 L 676 661.855469 L 126.347656 661.855469 Z M 126.347656 154 " clip-rule="nonzero"/></clipPath><clipPath id="89e6406b2e"><path d="M 172.351562 154 L 671 154 L 671 661.855469 L 172.351562 661.855469 Z M 172.351562 154 " clip-rule="nonzero"/></clipPath><clipPath id="2bc956a85b"><path d="M 126.347656 147.59375 L 661 147.59375 L 661 645 L 126.347656 645 Z M 126.347656 147.59375 " clip-rule="nonzero"/></clipPath><clipPath id="f4d3c63baa"><path d="M 166.453125 155 L 676 155 L 676 661.855469 L 166.453125 661.855469 Z M 166.453125 155 " clip-rule="nonzero"/></clipPath><clipPath id="0a98bee90e"><path d="M 229 283.40625 L 683.585938 283.40625 L 683.585938 646 L 229 646 Z M 229 283.40625 " clip-rule="nonzero"/></clipPath></defs><rect x="-81" width="972" fill="#ffffff" y="-80.999999" height="971.999992" fill-opacity="1"/><rect x="-81" width="972" fill="#ffffff" y="-80.999999" height="971.999992" fill-opacity="1"/><g clip-path="url(#39efc5f06e)"><path fill="#f4ad5e" d="M 612.230469 551.050781 L 591.78125 520.320312 L 583.886719 520.320312 C 575.882812 530.992188 567.4375 541.28125 558.625 551.050781 Z M 209.308594 205.347656 C 209.308594 205.816406 209.347656 206.28125 209.414062 206.734375 C 214.492188 203.285156 219.753906 200.015625 225.171875 196.925781 C 223.546875 195.824219 221.589844 195.179688 219.476562 195.179688 C 213.871094 195.179688 209.308594 199.738281 209.308594 205.347656 Z M 675.804688 569.421875 L 652.09375 569.421875 L 662.828125 661.855469 L 645.605469 661.855469 L 634.863281 569.421875 L 574.136719 569.421875 L 563.398438 661.855469 L 546.171875 661.855469 L 556.910156 569.421875 L 541.015625 569.421875 C 495.082031 614.378906 441.320312 644.679688 388.617188 644.679688 C 365.0625 644.679688 341.730469 640.089844 319.25 631.828125 L 322.746094 661.855469 L 305.515625 661.855469 L 301.152344 624.296875 C 276.855469 613.011719 253.832031 597.496094 232.945312 578.9375 L 223.3125 661.855469 L 206.085938 661.855469 L 216.824219 569.421875 L 194.414062 569.421875 L 194.414062 551.050781 L 205.152344 551.050781 C 157.457031 497.125 126.347656 427.058594 126.347656 360.59375 C 126.347656 298.613281 153.402344 250.597656 195.734375 216.816406 C 195 215.304688 194.410156 213.734375 193.980469 212.109375 L 186.238281 210.402344 L 186.238281 200.289062 L 193.980469 198.585938 C 194.585938 196.3125 195.484375 194.136719 196.664062 192.105469 L 192.390625 185.429688 L 199.554688 178.277344 L 206.234375 182.546875 C 208.265625 181.363281 210.4375 180.464844 212.714844 179.863281 L 214.417969 172.117188 L 224.542969 172.117188 L 226.242188 179.863281 C 228.519531 180.464844 230.691406 181.363281 232.726562 182.546875 L 239.40625 178.277344 L 246.5625 185.429688 L 246.042969 186.242188 C 249.890625 184.484375 253.800781 182.804688 257.769531 181.199219 L 257.769531 172.117188 L 283.625 172.117188 C 304.433594 165.835938 326.390625 161.527344 348.898438 159.203125 C 348.875 159.011719 348.839844 158.824219 348.839844 158.621094 C 348.839844 156.269531 350.753906 154.359375 353.105469 154.359375 C 355.390625 154.359375 357.242188 156.164062 357.351562 158.421875 C 367.695312 157.589844 378.132812 157.167969 388.617188 157.167969 C 523.308594 157.167969 664.972656 177.511719 664.972656 312.136719 C 664.972656 374.269531 634.789062 449.886719 589.046875 513.308594 L 624.796875 513.308594 L 649.90625 551.050781 L 675.804688 551.050781 Z M 189.167969 162.882812 C 191.515625 162.882812 193.429688 160.972656 193.429688 158.621094 C 193.429688 156.269531 191.515625 154.359375 189.167969 154.359375 C 186.8125 154.359375 184.898438 156.269531 184.898438 158.621094 C 184.898438 160.972656 186.8125 162.882812 189.167969 162.882812 Z M 516.527344 158.621094 C 516.527344 156.269531 518.445312 154.359375 520.796875 154.359375 C 523.148438 154.359375 525.0625 156.269531 525.0625 158.621094 C 525.0625 160.972656 523.148438 162.882812 520.796875 162.882812 C 518.445312 162.882812 516.527344 160.972656 516.527344 158.621094 " fill-opacity="1" fill-rule="nonzero"/></g><g clip-path="url(#89e6406b2e)"><path fill="#5ec9cc" d="M 509.109375 161.707031 C 510.816406 161.707031 512.195312 160.324219 512.195312 158.621094 C 512.195312 156.921875 510.816406 155.539062 509.109375 155.539062 C 507.40625 155.539062 506.023438 156.921875 506.023438 158.621094 C 506.023438 160.324219 507.40625 161.707031 509.109375 161.707031 Z M 578.921875 254.019531 L 593.292969 254.019531 L 593.292969 250.480469 L 578.921875 250.480469 Z M 573.347656 206.285156 L 553.769531 194.597656 L 553.769531 217.980469 Z M 622.269531 238.570312 L 504.847656 238.570312 L 504.847656 177.265625 L 622.269531 177.265625 Z M 599.542969 246.546875 L 589.539062 246.546875 L 589.539062 250.085938 L 599.542969 250.085938 Z M 578.921875 246.546875 L 578.921875 250.085938 L 588.925781 250.085938 L 588.925781 246.546875 Z M 599.542969 242.621094 L 578.921875 242.621094 L 578.921875 246.15625 L 599.542969 246.15625 Z M 269.359375 254.214844 L 257.355469 254.214844 L 257.355469 255.394531 L 269.359375 255.394531 Z M 275.609375 251.460938 L 275.609375 250.285156 L 267.972656 250.285156 L 267.972656 251.460938 Z M 264.992188 250.285156 L 257.355469 250.285156 L 257.355469 251.460938 L 264.992188 251.460938 Z M 275.609375 246.355469 L 257.355469 246.355469 L 257.355469 247.535156 L 275.609375 247.535156 Z M 194.042969 254.214844 L 182.039062 254.214844 L 182.039062 255.394531 L 194.042969 255.394531 Z M 200.296875 251.460938 L 200.296875 250.285156 L 192.65625 250.285156 L 192.65625 251.460938 Z M 189.679688 250.285156 L 182.039062 250.285156 L 182.039062 251.460938 L 189.679688 251.460938 Z M 200.296875 246.355469 L 182.039062 246.355469 L 182.039062 247.535156 L 200.296875 247.535156 Z M 279.945312 217.605469 L 258.949219 217.605469 L 258.949219 224.953125 L 279.945312 224.953125 Z M 279.945312 185.5625 L 258.949219 185.5625 L 258.949219 192.902344 L 279.945312 192.902344 Z M 177.480469 161.707031 C 179.183594 161.707031 180.5625 160.324219 180.5625 158.621094 C 180.5625 156.921875 179.183594 155.539062 177.480469 155.539062 C 175.777344 155.539062 174.394531 156.921875 174.394531 158.621094 C 174.394531 160.324219 175.777344 161.707031 177.480469 161.707031 Z M 201.914062 205.347656 C 201.914062 215.027344 209.792969 222.902344 219.476562 222.902344 C 229.167969 222.902344 237.046875 215.027344 237.046875 205.347656 C 237.046875 195.667969 229.167969 187.785156 219.476562 187.785156 C 209.792969 187.785156 201.914062 195.667969 201.914062 205.347656 Z M 200.734375 205.347656 C 200.734375 195.011719 209.140625 186.609375 219.476562 186.609375 C 229.816406 186.609375 238.226562 195.011719 238.226562 205.347656 C 238.226562 215.675781 229.816406 224.082031 219.476562 224.082031 C 209.140625 224.082031 200.734375 215.675781 200.734375 205.347656 Z M 424.566406 311.121094 C 423.601562 311.121094 422.722656 311.90625 422.601562 312.867188 C 422.476562 313.832031 423.164062 314.609375 424.125 314.609375 C 425.089844 314.609375 425.96875 313.832031 426.089844 312.867188 C 426.210938 311.90625 425.527344 311.121094 424.566406 311.121094 Z M 474.636719 311.683594 L 457.074219 311.683594 C 456.421875 311.683594 455.894531 312.214844 455.894531 312.863281 C 455.894531 313.515625 456.421875 314.042969 457.074219 314.042969 L 474.636719 314.042969 C 475.289062 314.042969 475.816406 313.515625 475.816406 312.863281 C 475.816406 312.214844 475.289062 311.683594 474.636719 311.683594 Z M 341.421875 162.882812 C 343.769531 162.882812 345.6875 160.972656 345.6875 158.621094 C 345.6875 156.269531 343.769531 154.359375 341.421875 154.359375 C 339.070312 154.359375 337.15625 156.269531 337.15625 158.621094 C 337.15625 160.972656 339.070312 162.882812 341.421875 162.882812 Z M 373.234375 242.191406 C 373.234375 244.050781 374.75 245.566406 376.609375 245.566406 L 402.15625 245.566406 C 404.019531 245.566406 405.535156 244.050781 405.535156 242.191406 C 405.535156 240.332031 404.019531 238.820312 402.15625 238.820312 L 376.609375 238.820312 C 374.75 238.820312 373.234375 240.332031 373.234375 242.191406 Z M 349.871094 225.050781 L 375.421875 225.050781 C 377.285156 225.050781 378.800781 223.539062 378.800781 221.675781 C 378.800781 219.8125 377.285156 218.304688 375.421875 218.304688 L 349.871094 218.304688 C 348.007812 218.304688 346.492188 219.8125 346.492188 221.675781 C 346.492188 223.539062 348.007812 225.050781 349.871094 225.050781 Z M 349.871094 204.53125 L 394.140625 204.53125 C 396 204.53125 397.511719 203.015625 397.511719 201.15625 C 397.511719 199.296875 396 197.785156 394.140625 197.785156 L 349.871094 197.785156 C 348.007812 197.785156 346.492188 199.296875 346.492188 201.15625 C 346.492188 203.015625 348.007812 204.53125 349.871094 204.53125 Z M 402.671875 225.050781 L 411.707031 225.050781 C 413.570312 225.050781 415.082031 223.539062 415.082031 221.675781 C 415.082031 219.8125 413.570312 218.304688 411.707031 218.304688 L 402.671875 218.304688 C 400.8125 218.304688 399.296875 219.8125 399.296875 221.675781 C 399.296875 223.539062 400.8125 225.050781 402.671875 225.050781 Z M 393.460938 225.050781 C 395.324219 225.050781 396.839844 223.539062 396.839844 221.675781 C 396.839844 219.8125 395.324219 218.304688 393.460938 218.304688 L 384.429688 218.304688 C 382.570312 218.304688 381.050781 219.8125 381.050781 221.675781 C 381.050781 223.539062 382.570312 225.050781 384.429688 225.050781 Z M 349.871094 194.277344 L 358.90625 194.277344 C 360.769531 194.277344 362.285156 192.761719 362.285156 190.898438 C 362.285156 189.039062 360.769531 187.523438 358.90625 187.523438 L 349.871094 187.523438 C 348.007812 187.523438 346.492188 189.039062 346.492188 190.898438 C 346.492188 192.761719 348.007812 194.277344 349.871094 194.277344 Z M 349.871094 184.015625 L 380.296875 184.015625 C 382.160156 184.015625 383.675781 182.503906 383.675781 180.644531 C 383.675781 178.78125 382.160156 177.265625 380.296875 177.265625 L 349.871094 177.265625 C 348.007812 177.265625 346.492188 178.78125 346.492188 180.644531 C 346.492188 182.503906 348.007812 184.015625 349.871094 184.015625 Z M 415.578125 629.859375 L 200.875 629.859375 C 192.03125 629.859375 184.863281 637.019531 184.863281 645.855469 C 184.863281 654.695312 192.03125 661.855469 200.875 661.855469 L 415.578125 661.855469 C 424.421875 661.855469 431.585938 654.695312 431.585938 645.855469 C 431.585938 637.019531 424.421875 629.859375 415.578125 629.859375 Z M 663.285156 295.578125 C 663.285156 294.929688 662.753906 294.398438 662.105469 294.398438 L 604.105469 294.398438 C 603.453125 294.398438 602.925781 294.929688 602.925781 295.578125 C 602.925781 296.234375 603.453125 296.757812 604.105469 296.757812 L 662.105469 296.757812 C 662.753906 296.757812 663.285156 296.234375 663.285156 295.578125 Z M 636.035156 314.042969 L 645.976562 314.042969 C 646.628906 314.042969 647.15625 313.515625 647.15625 312.863281 C 647.15625 312.214844 646.628906 311.683594 645.976562 311.683594 L 636.035156 311.683594 C 635.382812 311.683594 634.855469 312.214844 634.855469 312.863281 C 634.855469 313.515625 635.382812 314.042969 636.035156 314.042969 Z M 659.417969 320.570312 C 659.417969 319.917969 658.886719 319.390625 658.238281 319.390625 L 635.066406 319.390625 C 634.417969 319.390625 633.886719 319.917969 633.886719 320.570312 C 633.886719 321.21875 634.417969 321.746094 635.066406 321.746094 L 658.238281 321.746094 C 658.886719 321.746094 659.417969 321.21875 659.417969 320.570312 Z M 634.097656 329.453125 L 645.996094 329.453125 C 646.648438 329.453125 647.175781 328.921875 647.175781 328.273438 C 647.175781 327.621094 646.648438 327.09375 645.996094 327.09375 L 634.097656 327.09375 C 633.449219 327.09375 632.917969 327.621094 632.917969 328.273438 C 632.917969 328.921875 633.449219 329.453125 634.097656 329.453125 Z M 627.125 378.601562 C 626.472656 378.601562 625.945312 379.128906 625.945312 379.78125 C 625.945312 380.429688 626.472656 380.960938 627.125 380.960938 L 637.066406 380.960938 C 637.714844 380.960938 638.246094 380.429688 638.246094 379.78125 C 638.246094 379.128906 637.714844 378.601562 637.066406 378.601562 Z M 650.507812 387.480469 C 650.507812 386.832031 649.976562 386.304688 649.328125 386.304688 L 626.15625 386.304688 C 625.503906 386.304688 624.976562 386.832031 624.976562 387.480469 C 624.976562 388.136719 625.503906 388.660156 626.15625 388.660156 L 649.328125 388.660156 C 649.976562 388.660156 650.507812 388.136719 650.507812 387.480469 Z M 638.265625 395.1875 C 638.265625 394.535156 637.738281 394.007812 637.085938 394.007812 L 625.1875 394.007812 C 624.535156 394.007812 624.007812 394.535156 624.007812 395.1875 C 624.007812 395.835938 624.535156 396.367188 625.1875 396.367188 L 637.085938 396.367188 C 637.738281 396.367188 638.265625 395.835938 638.265625 395.1875 Z M 612.875 321.457031 C 612.875 320.808594 612.347656 320.277344 611.695312 320.277344 L 591.820312 320.277344 C 591.167969 320.277344 590.640625 320.808594 590.640625 321.457031 C 590.640625 322.113281 591.167969 322.636719 591.820312 322.636719 L 611.695312 322.636719 C 612.347656 322.636719 612.875 322.113281 612.875 321.457031 Z M 602.921875 336.867188 C 602.921875 336.214844 602.394531 335.6875 601.742188 335.6875 L 584.375 335.6875 C 583.726562 335.6875 583.195312 336.214844 583.195312 336.867188 C 583.195312 337.515625 583.726562 338.046875 584.375 338.046875 L 601.742188 338.046875 C 602.394531 338.046875 602.921875 337.515625 602.921875 336.867188 Z M 598.769531 433.628906 C 598.769531 432.980469 598.246094 432.449219 597.589844 432.449219 L 566.320312 432.449219 C 565.671875 432.449219 565.140625 432.980469 565.140625 433.628906 C 565.140625 434.277344 565.671875 434.808594 566.320312 434.808594 L 597.589844 434.808594 C 598.246094 434.808594 598.769531 434.277344 598.769531 433.628906 Z M 510.058594 304.273438 L 423.8125 304.273438 C 420.554688 304.273438 417.582031 306.914062 417.171875 310.167969 L 415.753906 321.457031 L 513.796875 321.457031 L 515.214844 310.167969 C 515.625 306.914062 513.316406 304.273438 510.058594 304.273438 Z M 500.175781 392.90625 C 500.175781 392.253906 499.644531 391.730469 498.996094 391.730469 L 488.472656 391.730469 C 487.820312 391.730469 487.292969 392.253906 487.292969 392.90625 C 487.292969 393.558594 487.820312 394.085938 488.472656 394.085938 L 498.996094 394.085938 C 499.644531 394.085938 500.175781 393.558594 500.175781 392.90625 Z M 474.789062 398.566406 C 474.789062 397.914062 474.261719 397.390625 473.609375 397.390625 L 463.753906 397.390625 C 463.105469 397.390625 462.574219 397.914062 462.574219 398.566406 C 462.574219 399.21875 463.105469 399.746094 463.753906 399.746094 L 473.609375 399.746094 C 474.261719 399.746094 474.789062 399.21875 474.789062 398.566406 Z M 454.390625 392.90625 C 454.390625 392.253906 453.863281 391.730469 453.210938 391.730469 L 442.6875 391.730469 C 442.03125 391.730469 441.507812 392.253906 441.507812 392.90625 C 441.507812 393.558594 442.03125 394.085938 442.6875 394.085938 L 453.210938 394.085938 C 453.863281 394.085938 454.390625 393.558594 454.390625 392.90625 Z M 425.730469 438.46875 L 416.746094 438.46875 C 415.503906 438.46875 414.375 439.472656 414.21875 440.714844 C 414.066406 441.949219 414.945312 442.953125 416.183594 442.953125 L 425.167969 442.953125 C 426.402344 442.953125 427.535156 441.949219 427.695312 440.714844 C 427.84375 439.472656 426.96875 438.46875 425.730469 438.46875 Z M 416.503906 423.121094 C 417.46875 423.121094 418.34375 422.335938 418.46875 421.375 C 418.589844 420.410156 417.90625 419.628906 416.941406 419.628906 C 415.980469 419.628906 415.101562 420.410156 414.980469 421.375 C 414.855469 422.335938 415.542969 423.121094 416.503906 423.121094 Z M 415.472656 398.566406 C 415.472656 399.21875 416 399.746094 416.652344 399.746094 L 423.890625 399.746094 C 424.542969 399.746094 425.070312 399.21875 425.070312 398.566406 C 425.070312 397.914062 424.542969 397.390625 423.890625 397.390625 L 416.652344 397.390625 C 416 397.390625 415.472656 397.914062 415.472656 398.566406 Z M 461.785156 336.867188 C 461.785156 336.214844 461.261719 335.6875 460.605469 335.6875 L 438.328125 335.6875 C 437.679688 335.6875 437.148438 336.214844 437.148438 336.867188 C 437.148438 337.515625 437.679688 338.046875 438.328125 338.046875 L 460.605469 338.046875 C 461.261719 338.046875 461.785156 337.515625 461.785156 336.867188 Z M 537.269531 464.441406 C 537.269531 465.09375 537.792969 465.621094 538.449219 465.621094 L 583.554688 465.621094 C 584.207031 465.621094 584.734375 465.09375 584.734375 464.441406 C 584.734375 463.792969 584.207031 463.261719 583.554688 463.261719 L 538.449219 463.261719 C 537.792969 463.261719 537.269531 463.792969 537.269531 464.441406 Z M 547.496094 383.085938 C 547.496094 383.734375 548.027344 384.261719 548.675781 384.261719 L 560.574219 384.261719 C 561.226562 384.261719 561.753906 383.734375 561.753906 383.085938 C 561.753906 382.429688 561.226562 381.90625 560.574219 381.90625 L 548.675781 381.90625 C 548.027344 381.90625 547.496094 382.429688 547.496094 383.085938 Z M 551.375 352.273438 C 551.375 352.921875 551.902344 353.453125 552.554688 353.453125 L 566.886719 353.453125 C 567.542969 353.453125 568.066406 352.921875 568.066406 352.273438 C 568.066406 351.617188 567.542969 351.09375 566.886719 351.09375 L 552.554688 351.09375 C 551.902344 351.09375 551.375 351.617188 551.375 352.273438 Z M 554.277344 329.164062 C 554.277344 329.8125 554.804688 330.339844 555.457031 330.339844 L 565.394531 330.339844 C 566.050781 330.339844 566.574219 329.8125 566.574219 329.164062 C 566.574219 328.511719 566.050781 327.984375 565.394531 327.984375 L 555.457031 327.984375 C 554.804688 327.984375 554.277344 328.511719 554.277344 329.164062 Z M 593.773438 352.273438 C 593.773438 351.617188 593.246094 351.09375 592.59375 351.09375 L 572.042969 351.09375 C 571.394531 351.09375 570.863281 351.617188 570.863281 352.273438 C 570.863281 352.921875 571.394531 353.453125 572.042969 353.453125 L 592.59375 353.453125 C 593.246094 353.453125 593.773438 352.921875 593.773438 352.273438 Z M 596.898438 376.558594 C 597.554688 376.558594 598.078125 376.03125 598.078125 375.378906 C 598.078125 374.730469 597.554688 374.199219 596.898438 374.199219 L 579.53125 374.199219 C 578.882812 374.199219 578.351562 374.730469 578.351562 375.378906 C 578.351562 376.03125 578.882812 376.558594 579.53125 376.558594 Z M 670.808594 299.511719 L 652.539062 464.230469 C 652 469.09375 647.894531 472.761719 642.996094 472.761719 L 387.144531 472.761719 C 384.375 472.761719 381.835938 471.628906 379.992188 469.570312 C 379.625 469.160156 379.3125 468.722656 379.023438 468.273438 C 376.367188 487.140625 363.636719 508.433594 363.636719 525.035156 C 363.636719 543.269531 377.542969 569.421875 377.542969 569.421875 C 377.542969 569.421875 372.605469 610.25 322.507812 610.25 C 304.402344 610.25 291.617188 607.078125 285.042969 604.933594 C 281.628906 603.816406 279.113281 600.949219 278.34375 597.445312 C 272.519531 571.023438 276.46875 533.511719 280.574219 520.320312 C 283.351562 511.402344 280.085938 465.734375 269.371094 433.179688 C 263.902344 416.570312 276.277344 399.480469 293.769531 399.480469 L 297.914062 386.304688 C 297.914062 386.304688 311.085938 379.9375 325.007812 382.765625 C 338.925781 385.597656 345.578125 389.421875 350.765625 390.148438 L 347.402344 399.554688 C 353.144531 400.054688 358.277344 403.472656 360.902344 408.679688 C 366.566406 419.929688 375.574219 439.25 378.527344 453.765625 L 395.871094 297.398438 C 396.410156 292.53125 400.511719 288.859375 405.414062 288.859375 L 661.265625 288.859375 C 664.03125 288.859375 666.574219 289.996094 668.417969 292.054688 C 670.265625 294.113281 671.113281 296.761719 670.808594 299.511719 Z M 431.167969 311.121094 C 430.210938 311.121094 429.328125 311.90625 429.203125 312.867188 C 429.085938 313.832031 429.765625 314.609375 430.730469 314.609375 C 431.691406 314.609375 432.574219 313.832031 432.691406 312.867188 C 432.816406 311.90625 432.136719 311.121094 431.167969 311.121094 Z M 437.777344 311.121094 C 436.8125 311.121094 435.933594 311.90625 435.8125 312.867188 C 435.691406 313.832031 436.375 314.609375 437.335938 314.609375 C 438.300781 314.609375 439.179688 313.832031 439.300781 312.867188 C 439.421875 311.90625 438.738281 311.121094 437.777344 311.121094 Z M 256.980469 305.738281 L 242.9375 305.738281 L 242.9375 336.351562 L 256.980469 336.351562 Z M 207.703125 336.351562 L 221.75 336.351562 L 221.75 309.980469 L 207.703125 309.980469 Z M 186.515625 336.351562 L 172.472656 336.351562 L 172.472656 319.175781 L 186.515625 319.175781 L 186.515625 336.351562 " fill-opacity="1" fill-rule="nonzero"/></g><g clip-path="url(#2bc956a85b)"><path fill="#efcb96" d="M 219.476562 216.695312 C 225.75 216.695312 230.832031 211.617188 230.832031 205.347656 C 230.832031 199.078125 225.75 194 219.476562 194 C 213.210938 194 208.128906 199.078125 208.128906 205.347656 C 208.128906 211.617188 213.210938 216.695312 219.476562 216.695312 Z M 186.078125 158.621094 C 186.078125 160.324219 187.460938 161.707031 189.167969 161.707031 C 190.871094 161.707031 192.25 160.324219 192.25 158.621094 C 192.25 156.921875 190.871094 155.539062 189.167969 155.539062 C 187.460938 155.539062 186.078125 156.921875 186.078125 158.621094 Z M 193.898438 185.59375 L 198.054688 192.089844 C 196.636719 194.367188 195.582031 196.890625 194.949219 199.582031 L 187.414062 201.234375 L 187.414062 209.457031 L 194.949219 211.113281 C 195.582031 213.804688 196.636719 216.328125 198.054688 218.605469 L 193.898438 225.101562 L 199.714844 230.914062 L 206.214844 226.761719 C 208.496094 228.175781 211.015625 229.230469 213.707031 229.863281 L 215.367188 237.394531 L 223.59375 237.394531 L 225.25 229.863281 C 227.9375 229.230469 230.460938 228.175781 232.742188 226.761719 L 239.246094 230.914062 L 245.058594 225.101562 L 240.902344 218.605469 C 242.320312 216.328125 243.378906 213.804688 244.011719 211.113281 L 251.542969 209.457031 L 251.542969 201.234375 L 244.011719 199.582031 C 243.378906 196.890625 242.320312 194.367188 240.902344 192.089844 L 245.058594 185.59375 L 239.246094 179.777344 L 232.742188 183.933594 C 230.460938 182.519531 227.9375 181.457031 225.25 180.832031 L 223.59375 173.296875 L 215.367188 173.296875 L 213.707031 180.832031 C 211.015625 181.457031 208.496094 182.519531 206.214844 183.933594 L 199.714844 179.777344 Z M 258.949219 212.6875 L 291.03125 212.6875 L 291.03125 205.347656 L 258.949219 205.347656 Z M 258.949219 180.644531 L 291.03125 180.644531 L 291.03125 173.296875 L 258.949219 173.296875 Z M 225.398438 246.355469 L 207.140625 246.355469 L 207.140625 247.535156 L 225.398438 247.535156 Z M 225.398438 250.285156 L 217.757812 250.285156 L 217.757812 251.460938 L 225.398438 251.460938 Z M 214.78125 251.460938 L 214.78125 250.285156 L 207.140625 250.285156 L 207.140625 251.460938 Z M 219.152344 254.214844 L 207.140625 254.214844 L 207.140625 255.394531 L 219.152344 255.394531 Z M 305.160156 239.410156 L 326.5 239.410156 L 326.5 206.875 L 305.160156 206.875 Z M 305.160156 205.699219 L 326.5 205.699219 L 326.5 173.167969 L 305.160156 173.167969 Z M 338.335938 242.191406 C 338.335938 243.40625 339.320312 244.386719 340.53125 244.386719 L 340.738281 244.386719 C 341.953125 244.386719 342.9375 243.40625 342.9375 242.191406 C 342.9375 240.980469 341.953125 240 340.738281 240 L 340.53125 240 C 339.320312 240 338.335938 240.980469 338.335938 242.191406 Z M 338.335938 231.933594 C 338.335938 233.144531 339.320312 234.132812 340.53125 234.132812 L 340.738281 234.132812 C 341.953125 234.132812 342.9375 233.144531 342.9375 231.933594 C 342.9375 230.722656 341.953125 229.738281 340.738281 229.738281 L 340.53125 229.738281 C 339.320312 229.738281 338.335938 230.722656 338.335938 231.933594 Z M 338.335938 221.679688 C 338.335938 222.890625 339.320312 223.871094 340.53125 223.871094 L 340.738281 223.871094 C 341.953125 223.871094 342.9375 222.890625 342.9375 221.679688 C 342.9375 220.460938 341.953125 219.480469 340.738281 219.480469 L 340.53125 219.480469 C 339.320312 219.480469 338.335938 220.460938 338.335938 221.679688 Z M 338.335938 211.417969 C 338.335938 212.628906 339.320312 213.613281 340.53125 213.613281 L 340.738281 213.613281 C 341.953125 213.613281 342.9375 212.628906 342.9375 211.417969 C 342.9375 210.207031 341.953125 209.21875 340.738281 209.21875 L 340.53125 209.21875 C 339.320312 209.21875 338.335938 210.207031 338.335938 211.417969 Z M 338.335938 201.15625 C 338.335938 202.371094 339.320312 203.351562 340.53125 203.351562 L 340.738281 203.351562 C 341.953125 203.351562 342.9375 202.371094 342.9375 201.15625 C 342.9375 199.945312 341.953125 198.964844 340.738281 198.964844 L 340.53125 198.964844 C 339.320312 198.964844 338.335938 199.945312 338.335938 201.15625 Z M 338.335938 190.898438 C 338.335938 192.109375 339.320312 193.097656 340.53125 193.097656 L 340.738281 193.097656 C 341.953125 193.097656 342.9375 192.109375 342.9375 190.898438 C 342.9375 189.6875 341.953125 188.703125 340.738281 188.703125 L 340.53125 188.703125 C 339.320312 188.703125 338.335938 189.6875 338.335938 190.898438 Z M 338.335938 180.644531 C 338.335938 181.855469 339.320312 182.835938 340.53125 182.835938 L 340.738281 182.835938 C 341.953125 182.835938 342.9375 181.855469 342.9375 180.644531 C 342.9375 179.425781 341.953125 178.445312 340.738281 178.445312 L 340.53125 178.445312 C 339.320312 178.445312 338.335938 179.425781 338.335938 180.644531 Z M 338.335938 170.382812 C 338.335938 171.59375 339.320312 172.578125 340.53125 172.578125 L 340.738281 172.578125 C 341.953125 172.578125 342.9375 171.59375 342.9375 170.382812 C 342.9375 169.171875 341.953125 168.183594 340.738281 168.183594 L 340.53125 168.183594 C 339.320312 168.183594 338.335938 169.171875 338.335938 170.382812 Z M 338.335938 158.621094 C 338.335938 160.324219 339.714844 161.707031 341.421875 161.707031 C 343.125 161.707031 344.507812 160.324219 344.507812 158.621094 C 344.507812 156.921875 343.125 155.539062 341.421875 155.539062 C 339.714844 155.539062 338.335938 156.921875 338.335938 158.621094 Z M 347.671875 242.191406 C 347.671875 243.40625 348.660156 244.386719 349.871094 244.386719 L 368.5 244.386719 C 369.710938 244.386719 370.699219 243.40625 370.699219 242.191406 C 370.699219 240.980469 369.710938 240 368.5 240 L 349.871094 240 C 348.660156 240 347.671875 240.980469 347.671875 242.191406 Z M 347.671875 231.933594 C 347.671875 233.144531 348.660156 234.132812 349.871094 234.132812 L 389.734375 234.132812 C 390.945312 234.132812 391.933594 233.144531 391.933594 231.933594 C 391.933594 230.722656 390.945312 229.738281 389.734375 229.738281 L 349.871094 229.738281 C 348.660156 229.738281 347.671875 230.722656 347.671875 231.933594 Z M 347.671875 221.679688 C 347.671875 222.890625 348.660156 223.871094 349.871094 223.871094 L 375.421875 223.871094 C 376.632812 223.871094 377.621094 222.890625 377.621094 221.679688 C 377.621094 220.460938 376.632812 219.480469 375.421875 219.480469 L 349.871094 219.480469 C 348.660156 219.480469 347.671875 220.460938 347.671875 221.679688 Z M 347.671875 211.417969 C 347.671875 212.628906 348.660156 213.613281 349.871094 213.613281 L 383.601562 213.613281 C 384.8125 213.613281 385.792969 212.628906 385.792969 211.417969 C 385.792969 210.207031 384.8125 209.21875 383.601562 209.21875 L 349.871094 209.21875 C 348.660156 209.21875 347.671875 210.207031 347.671875 211.417969 Z M 347.671875 201.15625 C 347.671875 202.371094 348.660156 203.351562 349.871094 203.351562 L 394.140625 203.351562 C 395.351562 203.351562 396.332031 202.371094 396.332031 201.15625 C 396.332031 199.945312 395.351562 198.964844 394.140625 198.964844 L 349.871094 198.964844 C 348.660156 198.964844 347.671875 199.945312 347.671875 201.15625 Z M 347.671875 190.898438 C 347.671875 192.109375 348.660156 193.097656 349.871094 193.097656 L 358.90625 193.097656 C 360.117188 193.097656 361.105469 192.109375 361.105469 190.898438 C 361.105469 189.6875 360.117188 188.703125 358.90625 188.703125 L 349.871094 188.703125 C 348.660156 188.703125 347.671875 189.6875 347.671875 190.898438 Z M 347.671875 180.644531 C 347.671875 181.855469 348.660156 182.835938 349.871094 182.835938 L 380.296875 182.835938 C 381.507812 182.835938 382.496094 181.855469 382.496094 180.644531 C 382.496094 179.425781 381.507812 178.445312 380.296875 178.445312 L 349.871094 178.445312 C 348.660156 178.445312 347.671875 179.425781 347.671875 180.644531 Z M 347.671875 170.382812 C 347.671875 171.59375 348.660156 172.578125 349.871094 172.578125 L 363.84375 172.578125 C 365.054688 172.578125 366.035156 171.59375 366.035156 170.382812 C 366.035156 169.171875 365.054688 168.183594 363.84375 168.183594 L 349.871094 168.183594 C 348.660156 168.183594 347.671875 169.171875 347.671875 170.382812 Z M 350.019531 158.621094 C 350.019531 160.324219 351.402344 161.707031 353.105469 161.707031 C 354.8125 161.707031 356.191406 160.324219 356.191406 158.621094 C 356.191406 156.921875 354.8125 155.539062 353.105469 155.539062 C 351.402344 155.539062 350.019531 156.921875 350.019531 158.621094 Z M 414.0625 188.703125 L 369.796875 188.703125 C 368.582031 188.703125 367.601562 189.6875 367.601562 190.898438 C 367.601562 192.109375 368.582031 193.097656 369.796875 193.097656 L 414.0625 193.097656 C 415.273438 193.097656 416.261719 192.109375 416.261719 190.898438 C 416.261719 189.6875 415.273438 188.703125 414.0625 188.703125 Z M 415.003906 201.15625 C 415.003906 199.945312 414.023438 198.964844 412.808594 198.964844 L 403.773438 198.964844 C 402.5625 198.964844 401.574219 199.945312 401.574219 201.15625 C 401.574219 202.371094 402.5625 203.351562 403.773438 203.351562 L 412.808594 203.351562 C 414.023438 203.351562 415.003906 202.371094 415.003906 201.15625 Z M 413.902344 221.679688 C 413.902344 220.460938 412.921875 219.480469 411.707031 219.480469 L 402.671875 219.480469 C 401.460938 219.480469 400.476562 220.460938 400.476562 221.679688 C 400.476562 222.890625 401.460938 223.871094 402.671875 223.871094 L 411.707031 223.871094 C 412.921875 223.871094 413.902344 222.890625 413.902344 221.679688 Z M 395.660156 221.679688 C 395.660156 220.460938 394.679688 219.480469 393.460938 219.480469 L 384.425781 219.480469 C 383.214844 219.480469 382.230469 220.460938 382.230469 221.679688 C 382.230469 222.890625 383.214844 223.871094 384.425781 223.871094 L 393.460938 223.871094 C 394.679688 223.871094 395.660156 222.890625 395.660156 221.679688 Z M 404.355469 242.191406 C 404.355469 240.980469 403.375 240 402.15625 240 L 376.609375 240 C 375.394531 240 374.414062 240.980469 374.414062 242.191406 C 374.414062 243.40625 375.394531 244.386719 376.609375 244.386719 L 402.15625 244.386719 C 403.375 244.386719 404.355469 243.40625 404.355469 242.191406 Z M 464.820312 239.410156 L 492.746094 239.410156 L 492.746094 206.875 L 464.820312 206.875 Z M 464.820312 205.699219 L 492.746094 205.699219 L 492.746094 173.167969 L 464.820312 173.167969 Z M 506.023438 237.394531 L 621.089844 237.394531 L 621.089844 178.445312 L 506.023438 178.445312 Z M 517.707031 158.621094 C 517.707031 160.324219 519.089844 161.707031 520.796875 161.707031 C 522.5 161.707031 523.882812 160.324219 523.882812 158.621094 C 523.882812 156.921875 522.5 155.539062 520.796875 155.539062 C 519.089844 155.539062 517.707031 156.921875 517.707031 158.621094 Z M 598.363281 243.800781 L 580.101562 243.800781 L 580.101562 244.976562 L 598.363281 244.976562 Z M 598.363281 247.726562 L 590.71875 247.726562 L 590.71875 248.90625 L 598.363281 248.90625 Z M 587.746094 248.90625 L 587.746094 247.726562 L 580.101562 247.726562 L 580.101562 248.90625 Z M 592.113281 251.660156 L 580.101562 251.660156 L 580.101562 252.839844 L 592.113281 252.839844 Z M 560.617188 243.800781 L 542.355469 243.800781 L 542.355469 244.976562 L 560.617188 244.976562 Z M 560.617188 247.726562 L 552.972656 247.726562 L 552.972656 248.90625 L 560.617188 248.90625 Z M 550 248.90625 L 550 247.726562 L 542.355469 247.726562 L 542.355469 248.90625 Z M 554.363281 251.660156 L 542.355469 251.660156 L 542.355469 252.839844 L 554.363281 252.839844 Z M 166.84375 263.214844 L 166.84375 153.714844 C 166.84375 150.457031 169.480469 147.820312 172.738281 147.820312 L 299.261719 147.820312 C 302.519531 147.820312 305.160156 150.457031 305.160156 153.714844 L 305.160156 171.988281 L 326.5 171.988281 L 326.5 153.714844 C 326.5 150.457031 329.140625 147.820312 332.398438 147.820312 L 458.921875 147.820312 C 462.179688 147.820312 464.820312 150.457031 464.820312 153.714844 L 464.820312 171.988281 L 492.746094 171.988281 L 492.746094 153.714844 C 492.746094 150.457031 495.386719 147.820312 498.644531 147.820312 L 625.164062 147.820312 C 628.425781 147.820312 631.0625 150.457031 631.0625 153.714844 L 631.0625 239.410156 L 646.304688 239.410156 C 646.542969 239.796875 646.765625 240.199219 646.996094 240.589844 L 631.0625 240.589844 L 631.0625 263.214844 C 631.0625 266.472656 628.425781 269.109375 625.164062 269.109375 L 498.644531 269.109375 C 495.386719 269.109375 492.746094 266.472656 492.746094 263.214844 L 492.746094 240.589844 L 464.820312 240.589844 L 464.820312 250.953125 C 464.820312 254.207031 462.179688 256.847656 458.921875 256.847656 L 332.398438 256.847656 C 329.140625 256.847656 326.5 254.207031 326.5 250.953125 L 326.5 240.589844 L 305.160156 240.589844 L 305.160156 263.214844 C 305.160156 266.472656 302.519531 269.109375 299.261719 269.109375 L 172.738281 269.109375 C 169.480469 269.109375 166.84375 266.472656 166.84375 263.214844 Z M 572.960938 294.398438 C 572.3125 294.398438 571.78125 294.929688 571.78125 295.578125 C 571.78125 296.234375 572.3125 296.757812 572.960938 296.757812 L 596.789062 296.757812 C 597.441406 296.757812 597.96875 296.234375 597.96875 295.578125 C 597.96875 294.929688 597.441406 294.398438 596.789062 294.398438 Z M 598.769531 433.628906 C 598.769531 432.980469 598.246094 432.449219 597.589844 432.449219 L 566.320312 432.449219 C 565.671875 432.449219 565.140625 432.980469 565.140625 433.628906 C 565.140625 434.277344 565.671875 434.808594 566.320312 434.808594 L 597.589844 434.808594 C 598.246094 434.808594 598.769531 434.277344 598.769531 433.628906 Z M 585.703125 456.742188 C 585.703125 456.085938 585.175781 455.5625 584.523438 455.5625 L 539.414062 455.5625 C 538.765625 455.5625 538.234375 456.085938 538.234375 456.742188 C 538.234375 457.390625 538.765625 457.917969 539.414062 457.917969 L 584.523438 457.917969 C 585.175781 457.917969 585.703125 457.390625 585.703125 456.742188 Z M 584.734375 464.441406 C 584.734375 463.792969 584.207031 463.261719 583.554688 463.261719 L 538.449219 463.261719 C 537.792969 463.261719 537.269531 463.792969 537.269531 464.441406 C 537.269531 465.09375 537.792969 465.621094 538.449219 465.621094 L 583.554688 465.621094 C 584.207031 465.621094 584.734375 465.09375 584.734375 464.441406 Z M 540.171875 441.332031 C 540.171875 441.984375 540.703125 442.507812 541.351562 442.507812 L 577.804688 442.507812 C 578.453125 442.507812 578.984375 441.984375 578.984375 441.332031 C 578.984375 440.679688 578.453125 440.152344 577.804688 440.152344 L 541.351562 440.152344 C 540.703125 440.152344 540.171875 440.679688 540.171875 441.332031 Z M 541.144531 433.628906 C 541.144531 434.277344 541.667969 434.808594 542.324219 434.808594 L 557.957031 434.808594 C 558.609375 434.808594 559.136719 434.277344 559.136719 433.628906 C 559.136719 432.980469 558.609375 432.449219 557.957031 432.449219 L 542.324219 432.449219 C 541.667969 432.449219 541.144531 432.980469 541.144531 433.628906 Z M 542.113281 425.929688 C 542.113281 426.578125 542.636719 427.109375 543.292969 427.109375 L 588.398438 427.109375 C 589.050781 427.109375 589.578125 426.578125 589.578125 425.929688 C 589.578125 425.273438 589.050781 424.75 588.398438 424.75 L 543.292969 424.75 C 542.636719 424.75 542.113281 425.273438 542.113281 425.929688 Z M 533.429688 425.929688 C 533.429688 425.273438 532.898438 424.75 532.25 424.75 L 524.386719 424.75 C 523.734375 424.75 523.207031 425.273438 523.207031 425.929688 C 523.207031 426.578125 523.734375 427.109375 524.386719 427.109375 L 532.25 427.109375 C 532.898438 427.109375 533.429688 426.578125 533.429688 425.929688 Z M 532.457031 433.628906 C 532.457031 432.980469 531.933594 432.449219 531.277344 432.449219 L 523.417969 432.449219 C 522.761719 432.449219 522.238281 432.980469 522.238281 433.628906 C 522.238281 434.277344 522.761719 434.808594 523.417969 434.808594 L 531.277344 434.808594 C 531.933594 434.808594 532.457031 434.277344 532.457031 433.628906 Z M 531.492188 441.332031 C 531.492188 440.679688 530.964844 440.152344 530.3125 440.152344 L 522.445312 440.152344 C 521.796875 440.152344 521.265625 440.679688 521.265625 441.332031 C 521.265625 441.984375 521.796875 442.507812 522.445312 442.507812 L 530.3125 442.507812 C 530.964844 442.507812 531.492188 441.984375 531.492188 441.332031 Z M 529.554688 456.742188 C 529.554688 456.085938 529.023438 455.5625 528.375 455.5625 L 520.507812 455.5625 C 519.859375 455.5625 519.332031 456.085938 519.332031 456.742188 C 519.332031 457.390625 519.859375 457.917969 520.507812 457.917969 L 528.375 457.917969 C 529.023438 457.917969 529.554688 457.390625 529.554688 456.742188 Z M 528.585938 464.441406 C 528.585938 463.792969 528.058594 463.261719 527.40625 463.261719 L 519.542969 463.261719 C 518.886719 463.261719 518.363281 463.792969 518.363281 464.441406 C 518.363281 465.09375 518.886719 465.621094 519.542969 465.621094 L 527.40625 465.621094 C 528.058594 465.621094 528.585938 465.09375 528.585938 464.441406 Z M 614.371094 421.191406 L 607.882812 472.761719 L 593.722656 472.761719 C 593.84375 472.582031 593.925781 472.375 593.925781 472.144531 C 593.925781 471.492188 593.402344 470.964844 592.746094 470.964844 L 561.476562 470.964844 C 560.828125 470.964844 560.296875 471.492188 560.296875 472.144531 C 560.296875 472.375 560.382812 472.582031 560.5 472.761719 L 554.09375 472.761719 C 554.207031 472.582031 554.292969 472.375 554.292969 472.144531 C 554.292969 471.492188 553.765625 470.964844 553.113281 470.964844 L 537.476562 470.964844 C 536.828125 470.964844 536.296875 471.492188 536.296875 472.144531 C 536.296875 472.375 536.382812 472.582031 536.5 472.761719 L 527.414062 472.761719 C 527.53125 472.582031 527.613281 472.375 527.613281 472.144531 C 527.613281 471.492188 527.089844 470.964844 526.433594 470.964844 L 518.574219 470.964844 C 517.921875 470.964844 517.394531 471.492188 517.394531 472.144531 C 517.394531 472.375 517.476562 472.582031 517.597656 472.761719 L 509.84375 472.761719 L 516.332031 421.191406 C 516.742188 417.933594 519.710938 415.296875 522.96875 415.296875 L 609.214844 415.296875 C 612.46875 415.296875 614.78125 417.933594 614.371094 421.191406 Z M 446.917969 438.46875 L 437.933594 438.46875 C 436.691406 438.46875 435.5625 439.472656 435.410156 440.714844 C 435.253906 441.949219 436.128906 442.953125 437.371094 442.953125 L 446.355469 442.953125 C 447.59375 442.953125 448.722656 441.949219 448.878906 440.714844 C 449.03125 439.472656 448.15625 438.46875 446.917969 438.46875 Z M 425.730469 438.46875 L 416.746094 438.46875 C 415.503906 438.46875 414.375 439.472656 414.21875 440.714844 C 414.066406 441.949219 414.945312 442.953125 416.183594 442.953125 L 425.167969 442.953125 C 426.402344 442.953125 427.535156 441.949219 427.695312 440.714844 C 427.84375 439.472656 426.96875 438.46875 425.730469 438.46875 Z M 410.335938 419.628906 C 409.371094 419.628906 408.492188 420.410156 408.371094 421.375 C 408.253906 422.335938 408.933594 423.121094 409.898438 423.121094 C 410.859375 423.121094 411.742188 422.335938 411.859375 421.375 C 411.984375 420.410156 411.296875 419.628906 410.335938 419.628906 Z M 416.503906 423.121094 C 417.46875 423.121094 418.34375 422.335938 418.46875 421.375 C 418.589844 420.410156 417.90625 419.628906 416.941406 419.628906 C 415.980469 419.628906 415.101562 420.410156 414.980469 421.375 C 414.855469 422.335938 415.542969 423.121094 416.503906 423.121094 Z M 423.109375 423.121094 C 424.070312 423.121094 424.953125 422.335938 425.070312 421.375 C 425.195312 420.410156 424.515625 419.628906 423.546875 419.628906 C 422.582031 419.628906 421.707031 420.410156 421.582031 421.375 C 421.464844 422.335938 422.144531 423.121094 423.109375 423.121094 Z M 441.480469 430.453125 L 423.902344 430.453125 C 423.25 430.453125 422.722656 430.980469 422.722656 431.632812 C 422.722656 432.285156 423.25 432.808594 423.902344 432.808594 L 441.480469 432.808594 C 442.132812 432.808594 442.660156 432.285156 442.660156 431.632812 C 442.660156 430.980469 442.132812 430.453125 441.480469 430.453125 Z M 459.335938 415.28125 C 462.59375 415.28125 464.90625 417.925781 464.496094 421.175781 L 462.023438 440.828125 C 461.617188 444.085938 458.640625 446.722656 455.386719 446.722656 L 405.292969 446.722656 C 402.035156 446.722656 399.726562 444.085938 400.136719 440.828125 L 402.609375 421.175781 C 403.019531 417.925781 405.992188 415.28125 409.25 415.28125 Z M 432.691406 312.867188 C 432.816406 311.90625 432.136719 311.121094 431.167969 311.121094 C 430.210938 311.121094 429.328125 311.90625 429.203125 312.867188 C 429.085938 313.832031 429.765625 314.609375 430.730469 314.609375 C 431.691406 314.609375 432.574219 313.832031 432.691406 312.867188 Z M 494.96875 398.566406 C 494.96875 397.914062 494.4375 397.390625 493.789062 397.390625 L 487.761719 397.390625 C 487.105469 397.390625 486.582031 397.914062 486.582031 398.566406 C 486.582031 399.21875 487.105469 399.746094 487.761719 399.746094 L 493.789062 399.746094 C 494.4375 399.746094 494.96875 399.21875 494.96875 398.566406 Z M 486.324219 338.046875 C 486.972656 338.046875 487.503906 337.515625 487.503906 336.867188 C 487.503906 336.214844 486.972656 335.6875 486.324219 335.6875 L 468.761719 335.6875 C 468.113281 335.6875 467.582031 336.214844 467.582031 336.867188 C 467.582031 337.515625 468.113281 338.046875 468.761719 338.046875 Z M 482.90625 347.1875 L 440.175781 347.1875 C 438.4375 347.1875 436.855469 348.597656 436.636719 350.335938 L 435.34375 360.605469 C 435.125 362.335938 436.355469 363.746094 438.09375 363.746094 L 480.820312 363.746094 C 482.558594 363.746094 484.144531 362.335938 484.359375 360.605469 L 485.652344 350.335938 C 485.871094 348.597656 484.636719 347.1875 482.90625 347.1875 Z M 464.46875 394.085938 L 470.496094 394.085938 C 471.144531 394.085938 471.675781 393.558594 471.675781 392.90625 C 471.675781 392.253906 471.144531 391.730469 470.496094 391.730469 L 464.46875 391.730469 C 463.816406 391.730469 463.289062 392.253906 463.289062 392.90625 C 463.289062 393.558594 463.816406 394.085938 464.46875 394.085938 Z M 474.789062 398.566406 C 474.789062 397.914062 474.261719 397.390625 473.609375 397.390625 L 463.753906 397.390625 C 463.105469 397.390625 462.574219 397.914062 462.574219 398.566406 C 462.574219 399.21875 463.105469 399.746094 463.753906 399.746094 L 473.609375 399.746094 C 474.261719 399.746094 474.789062 399.21875 474.789062 398.566406 Z M 454.390625 392.90625 C 454.390625 392.253906 453.863281 391.730469 453.210938 391.730469 L 442.6875 391.730469 C 442.03125 391.730469 441.507812 392.253906 441.507812 392.90625 C 441.507812 393.558594 442.03125 394.085938 442.6875 394.085938 L 453.210938 394.085938 C 453.863281 394.085938 454.390625 393.558594 454.390625 392.90625 Z M 449.183594 398.566406 C 449.183594 397.914062 448.65625 397.390625 448.003906 397.390625 L 441.972656 397.390625 C 441.324219 397.390625 440.792969 397.914062 440.792969 398.566406 C 440.792969 399.21875 441.324219 399.746094 441.972656 399.746094 L 448.003906 399.746094 C 448.65625 399.746094 449.183594 399.21875 449.183594 398.566406 Z M 430.597656 392.90625 C 430.597656 392.253906 430.070312 391.730469 429.417969 391.730469 L 417.363281 391.730469 C 416.710938 391.730469 416.183594 392.253906 416.183594 392.90625 C 416.183594 393.558594 416.710938 394.085938 417.363281 394.085938 L 429.417969 394.085938 C 430.070312 394.085938 430.597656 393.558594 430.597656 392.90625 Z M 425.070312 398.566406 C 425.070312 397.914062 424.542969 397.390625 423.890625 397.390625 L 416.652344 397.390625 C 416 397.390625 415.472656 397.914062 415.472656 398.566406 C 415.472656 399.21875 416 399.746094 416.652344 399.746094 L 423.890625 399.746094 C 424.542969 399.746094 425.070312 399.21875 425.070312 398.566406 Z M 437.148438 336.867188 C 437.148438 337.515625 437.679688 338.046875 438.328125 338.046875 L 460.605469 338.046875 C 461.261719 338.046875 461.785156 337.515625 461.785156 336.867188 C 461.785156 336.214844 461.261719 335.6875 460.605469 335.6875 L 438.328125 335.6875 C 437.679688 335.6875 437.148438 336.214844 437.148438 336.867188 Z M 487.292969 392.90625 C 487.292969 393.558594 487.820312 394.085938 488.472656 394.085938 L 498.996094 394.085938 C 499.644531 394.085938 500.175781 393.558594 500.175781 392.90625 C 500.175781 392.253906 499.644531 391.730469 498.996094 391.730469 L 488.472656 391.730469 C 487.820312 391.730469 487.292969 392.253906 487.292969 392.90625 Z M 497.183594 406.664062 L 410.9375 406.664062 C 407.679688 406.664062 405.371094 404.023438 405.78125 400.769531 L 415.753906 321.457031 L 513.796875 321.457031 L 515.214844 310.167969 L 503.820312 400.769531 C 503.414062 404.023438 500.441406 406.664062 497.183594 406.664062 Z M 629.25 464.410156 L 617.347656 464.410156 C 616.699219 464.410156 616.167969 464.9375 616.167969 465.585938 C 616.167969 466.238281 616.699219 466.765625 617.347656 466.765625 L 629.25 466.765625 C 629.902344 466.765625 630.429688 466.238281 630.429688 465.585938 C 630.429688 464.9375 629.902344 464.410156 629.25 464.410156 Z M 635.066406 456.703125 L 618.320312 456.703125 C 617.667969 456.703125 617.140625 457.234375 617.140625 457.882812 C 617.140625 458.535156 617.667969 459.0625 618.320312 459.0625 L 635.066406 459.0625 C 635.71875 459.0625 636.246094 458.535156 636.246094 457.882812 C 636.246094 457.234375 635.71875 456.703125 635.066406 456.703125 Z M 619.289062 451.359375 L 629.226562 451.359375 C 629.878906 451.359375 630.40625 450.832031 630.40625 450.183594 C 630.40625 449.53125 629.878906 449.003906 629.226562 449.003906 L 619.289062 449.003906 C 618.632812 449.003906 618.109375 449.53125 618.109375 450.183594 C 618.109375 450.832031 618.632812 451.359375 619.289062 451.359375 Z M 640.835938 361.992188 L 628.9375 361.992188 C 628.28125 361.992188 627.757812 362.519531 627.757812 363.167969 C 627.757812 363.824219 628.28125 364.347656 628.9375 364.347656 L 640.835938 364.347656 C 641.484375 364.347656 642.015625 363.824219 642.015625 363.167969 C 642.015625 362.519531 641.484375 361.992188 640.835938 361.992188 Z M 646.648438 354.289062 L 629.90625 354.289062 C 629.25 354.289062 628.726562 354.816406 628.726562 355.46875 C 628.726562 356.117188 629.25 356.648438 629.90625 356.648438 L 646.648438 356.648438 C 647.304688 356.648438 647.828125 356.117188 647.828125 355.46875 C 647.828125 354.816406 647.304688 354.289062 646.648438 354.289062 Z M 630.871094 346.585938 C 630.222656 346.585938 629.691406 347.113281 629.691406 347.765625 C 629.691406 348.417969 630.222656 348.941406 630.871094 348.941406 L 640.8125 348.941406 C 641.464844 348.941406 641.992188 348.417969 641.992188 347.765625 C 641.992188 347.113281 641.464844 346.585938 640.8125 346.585938 Z M 612.875 321.457031 C 612.875 320.808594 612.347656 320.277344 611.695312 320.277344 L 591.820312 320.277344 C 591.167969 320.277344 590.640625 320.808594 590.640625 321.457031 C 590.640625 322.113281 591.167969 322.636719 591.820312 322.636719 L 611.695312 322.636719 C 612.347656 322.636719 612.875 322.113281 612.875 321.457031 Z M 602.921875 336.867188 C 602.921875 336.214844 602.394531 335.6875 601.742188 335.6875 L 584.375 335.6875 C 583.726562 335.6875 583.195312 336.214844 583.195312 336.867188 C 583.195312 337.515625 583.726562 338.046875 584.375 338.046875 L 601.742188 338.046875 C 602.394531 338.046875 602.921875 337.515625 602.921875 336.867188 Z M 598.078125 375.378906 C 598.078125 374.730469 597.554688 374.199219 596.898438 374.199219 L 579.53125 374.199219 C 578.882812 374.199219 578.351562 374.730469 578.351562 375.378906 C 578.351562 376.03125 578.882812 376.558594 579.53125 376.558594 L 596.898438 376.558594 C 597.554688 376.558594 598.078125 376.03125 598.078125 375.378906 Z M 589.457031 383.085938 C 589.457031 382.429688 588.933594 381.90625 588.277344 381.90625 L 567.292969 381.90625 C 566.640625 381.90625 566.113281 382.429688 566.113281 383.085938 C 566.113281 383.734375 566.640625 384.261719 567.292969 384.261719 L 588.277344 384.261719 C 588.933594 384.261719 589.457031 383.734375 589.457031 383.085938 Z M 577.5625 390.785156 C 577.5625 390.136719 577.035156 389.605469 576.382812 389.605469 L 547.710938 389.605469 C 547.054688 389.605469 546.53125 390.136719 546.53125 390.785156 C 546.53125 391.4375 547.054688 391.964844 547.710938 391.964844 L 576.382812 391.964844 C 577.035156 391.964844 577.5625 391.4375 577.5625 390.785156 Z M 546.5625 321.457031 C 546.5625 320.808594 546.039062 320.277344 545.382812 320.277344 L 537.523438 320.277344 C 536.871094 320.277344 536.34375 320.808594 536.34375 321.457031 C 536.34375 322.113281 536.871094 322.636719 537.523438 322.636719 L 545.382812 322.636719 C 546.039062 322.636719 546.5625 322.113281 546.5625 321.457031 Z M 545.59375 329.164062 C 545.59375 328.511719 545.070312 327.984375 544.414062 327.984375 L 536.554688 327.984375 C 535.898438 327.984375 535.375 328.511719 535.375 329.164062 C 535.375 329.8125 535.898438 330.339844 536.554688 330.339844 L 544.414062 330.339844 C 545.070312 330.339844 545.59375 329.8125 545.59375 329.164062 Z M 544.628906 336.867188 C 544.628906 336.214844 544.101562 335.6875 543.449219 335.6875 L 535.585938 335.6875 C 534.933594 335.6875 534.40625 336.214844 534.40625 336.867188 C 534.40625 337.515625 534.933594 338.046875 535.585938 338.046875 L 543.449219 338.046875 C 544.101562 338.046875 544.628906 337.515625 544.628906 336.867188 Z M 543.660156 344.566406 C 543.660156 343.917969 543.128906 343.390625 542.480469 343.390625 L 534.613281 343.390625 C 533.964844 343.390625 533.433594 343.917969 533.433594 344.566406 C 533.433594 345.21875 533.964844 345.746094 534.613281 345.746094 L 542.480469 345.746094 C 543.128906 345.746094 543.660156 345.21875 543.660156 344.566406 Z M 542.691406 352.273438 C 542.691406 351.617188 542.160156 351.09375 541.511719 351.09375 L 533.648438 351.09375 C 532.996094 351.09375 532.46875 351.617188 532.46875 352.273438 C 532.46875 352.921875 532.996094 353.453125 533.648438 353.453125 L 541.511719 353.453125 C 542.160156 353.453125 542.691406 352.921875 542.691406 352.273438 Z M 540.753906 367.679688 C 540.753906 367.023438 540.226562 366.5 539.574219 366.5 L 531.710938 366.5 C 531.058594 366.5 530.53125 367.023438 530.53125 367.679688 C 530.53125 368.328125 531.058594 368.859375 531.710938 368.859375 L 539.574219 368.859375 C 540.226562 368.859375 540.753906 368.328125 540.753906 367.679688 Z M 539.785156 375.378906 C 539.785156 374.730469 539.253906 374.199219 538.605469 374.199219 L 530.738281 374.199219 C 530.089844 374.199219 529.558594 374.730469 529.558594 375.378906 C 529.558594 376.03125 530.089844 376.558594 530.738281 376.558594 L 538.605469 376.558594 C 539.253906 376.558594 539.785156 376.03125 539.785156 375.378906 Z M 538.816406 383.085938 C 538.816406 382.429688 538.285156 381.90625 537.636719 381.90625 L 529.773438 381.90625 C 529.121094 381.90625 528.59375 382.429688 528.59375 383.085938 C 528.59375 383.734375 529.121094 384.261719 529.773438 384.261719 L 537.636719 384.261719 C 538.285156 384.261719 538.816406 383.734375 538.816406 383.085938 Z M 537.847656 390.785156 C 537.847656 390.136719 537.320312 389.605469 536.667969 389.605469 L 528.804688 389.605469 C 528.152344 389.605469 527.625 390.136719 527.625 390.785156 C 527.625 391.4375 528.152344 391.964844 528.804688 391.964844 L 536.667969 391.964844 C 537.320312 391.964844 537.847656 391.4375 537.847656 390.785156 Z M 547.496094 383.085938 C 547.496094 383.734375 548.027344 384.261719 548.675781 384.261719 L 560.574219 384.261719 C 561.226562 384.261719 561.753906 383.734375 561.753906 383.085938 C 561.753906 382.429688 561.226562 381.90625 560.574219 381.90625 L 548.675781 381.90625 C 548.027344 381.90625 547.496094 382.429688 547.496094 383.085938 Z M 548.464844 375.378906 C 548.464844 376.03125 548.996094 376.558594 549.644531 376.558594 L 572.816406 376.558594 C 573.46875 376.558594 573.996094 376.03125 573.996094 375.378906 C 573.996094 374.730469 573.46875 374.199219 572.816406 374.199219 L 549.644531 374.199219 C 548.996094 374.199219 548.464844 374.730469 548.464844 375.378906 Z M 549.433594 367.679688 C 549.433594 368.328125 549.964844 368.859375 550.613281 368.859375 L 560.550781 368.859375 C 561.207031 368.859375 561.730469 368.328125 561.730469 367.679688 C 561.730469 367.023438 561.207031 366.5 560.550781 366.5 L 550.613281 366.5 C 549.964844 366.5 549.433594 367.023438 549.433594 367.679688 Z M 551.375 352.273438 C 551.375 352.921875 551.902344 353.453125 552.554688 353.453125 L 566.886719 353.453125 C 567.542969 353.453125 568.066406 352.921875 568.066406 352.273438 C 568.066406 351.617188 567.542969 351.09375 566.886719 351.09375 L 552.554688 351.09375 C 551.902344 351.09375 551.375 351.617188 551.375 352.273438 Z M 552.339844 344.566406 C 552.339844 345.21875 552.871094 345.746094 553.519531 345.746094 L 565.417969 345.746094 C 566.074219 345.746094 566.597656 345.21875 566.597656 344.566406 C 566.597656 343.917969 566.074219 343.390625 565.417969 343.390625 L 553.519531 343.390625 C 552.871094 343.390625 552.339844 343.917969 552.339844 344.566406 Z M 553.308594 336.867188 C 553.308594 337.515625 553.839844 338.046875 554.488281 338.046875 L 577.660156 338.046875 C 578.3125 338.046875 578.839844 337.515625 578.839844 336.867188 C 578.839844 336.214844 578.3125 335.6875 577.660156 335.6875 L 554.488281 335.6875 C 553.839844 335.6875 553.308594 336.214844 553.308594 336.867188 Z M 554.277344 329.164062 C 554.277344 329.8125 554.804688 330.339844 555.457031 330.339844 L 565.394531 330.339844 C 566.050781 330.339844 566.574219 329.8125 566.574219 329.164062 C 566.574219 328.511719 566.050781 327.984375 565.394531 327.984375 L 555.457031 327.984375 C 554.804688 327.984375 554.277344 328.511719 554.277344 329.164062 Z M 555.25 321.457031 C 555.25 322.113281 555.773438 322.636719 556.429688 322.636719 L 585.101562 322.636719 C 585.753906 322.636719 586.28125 322.113281 586.28125 321.457031 C 586.28125 320.808594 585.753906 320.277344 585.101562 320.277344 L 556.429688 320.277344 C 555.773438 320.277344 555.25 320.808594 555.25 321.457031 Z M 590.589844 330.339844 C 591.246094 330.339844 591.769531 329.8125 591.769531 329.164062 C 591.769531 328.511719 591.246094 327.984375 590.589844 327.984375 L 570.710938 327.984375 C 570.0625 327.984375 569.53125 328.511719 569.53125 329.164062 C 569.53125 329.8125 570.0625 330.339844 570.710938 330.339844 Z M 581.195312 344.566406 C 581.195312 343.917969 580.664062 343.390625 580.015625 343.390625 L 572.136719 343.390625 C 571.480469 343.390625 570.957031 343.917969 570.957031 344.566406 C 570.957031 345.21875 571.480469 345.746094 572.136719 345.746094 L 580.015625 345.746094 C 580.664062 345.746094 581.195312 345.21875 581.195312 344.566406 Z M 585.746094 366.5 L 565.871094 366.5 C 565.21875 366.5 564.691406 367.023438 564.691406 367.679688 C 564.691406 368.328125 565.21875 368.859375 565.871094 368.859375 L 585.746094 368.859375 C 586.402344 368.859375 586.925781 368.328125 586.925781 367.679688 C 586.925781 367.023438 586.402344 366.5 585.746094 366.5 Z M 592.59375 353.453125 C 593.246094 353.453125 593.773438 352.921875 593.773438 352.273438 C 593.773438 351.617188 593.246094 351.09375 592.59375 351.09375 L 572.042969 351.09375 C 571.394531 351.09375 570.863281 351.617188 570.863281 352.273438 C 570.863281 352.921875 571.394531 353.453125 572.042969 353.453125 Z M 616.9375 400.769531 C 616.527344 404.023438 613.554688 406.664062 610.296875 406.664062 L 524.054688 406.664062 C 520.796875 406.664062 518.488281 404.023438 518.898438 400.769531 L 530.292969 310.167969 C 530.699219 306.914062 533.675781 304.273438 536.925781 304.273438 L 623.171875 304.273438 C 626.429688 304.273438 628.738281 306.914062 628.332031 310.167969 Z M 308.617188 340.539062 L 307.519531 331.492188 C 306.460938 322.710938 309.050781 314.410156 314.023438 308.003906 L 265.703125 308.003906 L 265.703125 340.40625 C 265.703125 340.449219 265.691406 340.492188 265.691406 340.539062 Z M 255.800781 306.917969 L 244.117188 306.917969 L 244.117188 335.171875 L 255.800781 335.171875 Z M 238.183594 308.003906 L 238.183594 303.378906 L 226.5 303.378906 L 226.5 335.171875 L 238.183594 335.171875 Z M 220.570312 311.160156 L 208.882812 311.160156 L 208.882812 335.171875 L 220.570312 335.171875 Z M 202.953125 325.355469 L 191.269531 325.355469 L 191.269531 335.171875 L 202.953125 335.171875 Z M 185.335938 320.355469 L 173.652344 320.355469 L 173.652344 335.171875 L 185.335938 335.171875 Z M 304.742188 375.425781 L 126.875 375.425781 C 126.84375 375.035156 126.8125 374.636719 126.789062 374.246094 L 305.074219 374.246094 L 308.308594 362.855469 C 309.699219 357.945312 310.101562 352.816406 309.488281 347.75 L 308.757812 341.71875 L 265.542969 341.71875 C 264.945312 344.335938 262.605469 346.300781 259.804688 346.300781 L 172.738281 346.300781 C 169.933594 346.300781 167.597656 344.335938 167 341.71875 L 127.21875 341.71875 C 127.253906 341.320312 127.300781 340.929688 127.34375 340.539062 L 166.855469 340.539062 C 166.855469 340.492188 166.84375 340.449219 166.84375 340.40625 L 166.84375 308.003906 L 133.503906 308.003906 C 133.613281 307.609375 133.738281 307.222656 133.855469 306.824219 L 166.84375 306.824219 L 166.84375 294.753906 C 166.84375 291.5 169.480469 288.859375 172.738281 288.859375 L 259.804688 288.859375 C 263.058594 288.859375 265.703125 291.5 265.703125 294.753906 L 265.703125 306.824219 L 314.984375 306.824219 C 320.835938 299.980469 329.53125 295.578125 339.371094 295.578125 C 349.078125 295.578125 357.855469 299.914062 363.769531 306.824219 L 394.824219 306.824219 L 394.695312 308.003906 L 364.730469 308.003906 C 368.292969 312.597656 370.648438 318.195312 371.277344 324.355469 L 371.601562 327.472656 L 378.320312 340.539062 L 391.089844 340.539062 L 390.953125 341.71875 L 378.753906 341.71875 C 378.78125 342.464844 378.316406 343.1875 377.535156 343.410156 L 374.902344 344.1875 C 374.132812 344.40625 373.628906 345.132812 373.6875 345.929688 C 374.09375 351.175781 375.273438 369.882812 371.601562 371.859375 C 367.324219 374.164062 346.910156 370.035156 346.910156 370.035156 C 346.519531 371.425781 346.203125 372.832031 345.9375 374.246094 L 387.347656 374.246094 L 387.21875 375.425781 L 345.734375 375.425781 C 345.011719 379.800781 344.828125 384.246094 345.207031 388.65625 C 340.632812 387.09375 334.519531 384.699219 325.007812 382.765625 C 315.894531 380.914062 307.105469 383.003906 302.121094 384.667969 Z M 277.992188 470.363281 C 276.542969 461.203125 274.628906 451.753906 272.238281 442.84375 L 272.242188 442.84375 C 272.199219 442.6875 272.160156 442.535156 272.117188 442.386719 C 271.261719 439.234375 270.347656 436.148438 269.371094 433.179688 C 266.105469 423.25 269.210938 413.15625 275.976562 406.636719 C 275.648438 406.785156 275.316406 406.914062 274.992188 407.074219 C 274.441406 407.351562 273.914062 407.648438 273.394531 407.953125 L 131.367188 407.953125 C 131.449219 408.351562 131.527344 408.742188 131.609375 409.132812 L 271.578125 409.132812 C 261.375 416.449219 258.085938 430.464844 264.394531 441.667969 L 140.652344 441.667969 C 140.785156 442.058594 140.910156 442.453125 141.046875 442.84375 L 265.054688 442.84375 Z M 388.617188 644.679688 C 393.433594 644.679688 398.257812 644.414062 403.085938 643.921875 L 372.226562 643.921875 C 377.675781 644.40625 383.140625 644.679688 388.617188 644.679688 Z M 322.507812 610.25 C 321.367188 610.25 320.25 610.238281 319.15625 610.214844 L 274.941406 610.214844 C 275.59375 610.609375 276.246094 610.996094 276.894531 611.394531 L 489.015625 611.394531 C 489.625 611.003906 490.226562 610.605469 490.832031 610.214844 L 323.945312 610.214844 C 323.464844 610.21875 323.003906 610.25 322.507812 610.25 Z M 275.679688 576.503906 L 230.222656 576.503906 C 230.65625 576.898438 231.089844 577.289062 231.523438 577.679688 L 275.75 577.679688 C 275.726562 577.289062 275.703125 576.898438 275.679688 576.503906 Z M 375.328125 577.679688 L 532.308594 577.679688 C 532.734375 577.289062 533.160156 576.898438 533.582031 576.503906 L 375.75 576.503906 C 375.617188 576.890625 375.476562 577.277344 375.328125 577.679688 Z M 276.609375 542.792969 L 198.058594 542.792969 C 198.390625 543.191406 198.726562 543.578125 199.058594 543.972656 L 276.492188 543.972656 C 276.527344 543.578125 276.570312 543.1875 276.609375 542.792969 Z M 281.507812 509.082031 L 173.46875 509.082031 C 173.722656 509.476562 173.976562 509.871094 174.226562 510.261719 L 281.507812 510.261719 C 281.507812 509.878906 281.507812 509.488281 281.507812 509.082031 Z M 463.269531 525.992188 C 466.035156 526.441406 468.753906 526.867188 471.386719 527.269531 L 471.085938 526.804688 L 464.085938 525.320312 Z M 524.933594 542.792969 L 542.6875 542.792969 L 537.070312 538.878906 L 527.023438 541.171875 Z M 388.71875 475.375 L 613.707031 475.375 C 613.476562 475.765625 613.253906 476.160156 613.023438 476.554688 L 389.320312 476.554688 C 396.792969 491.023438 403.644531 503.054688 407.777344 509.082031 L 592.054688 509.082031 C 591.78125 509.476562 591.503906 509.871094 591.226562 510.261719 L 408.609375 510.261719 C 409.679688 511.753906 410.523438 512.730469 411.074219 513.09375 C 415.453125 516.011719 426.289062 518.941406 438.941406 521.566406 L 459.011719 513.996094 C 461.0625 513.226562 463.359375 513.488281 465.179688 514.707031 L 475.09375 521.328125 L 479.230469 528.4375 C 486.972656 529.558594 493.335938 530.398438 496.878906 530.847656 L 507.871094 530.433594 L 531.441406 522.296875 C 533.554688 521.566406 535.894531 521.898438 537.71875 523.199219 L 547.65625 530.246094 L 554.488281 542.792969 L 565.878906 542.792969 C 565.542969 543.1875 565.207031 543.582031 564.871094 543.972656 L 555.128906 543.972656 L 555.359375 544.398438 C 555.796875 545.203125 555.464844 546.210938 554.632812 546.59375 C 552.96875 546.480469 551.066406 545.648438 549.515625 544.492188 L 549.917969 547.207031 C 550.101562 548.445312 549.085938 549.542969 547.839844 549.449219 C 545.890625 549.3125 544.285156 547.867188 543.949219 545.941406 L 543.605469 543.972656 L 523.40625 543.972656 L 518.578125 547.707031 C 516.304688 549.464844 513.652344 550.636719 510.855469 551.148438 C 509.035156 551.480469 507.160156 551.425781 505.328125 551.175781 L 494.179688 549.636719 L 411.207031 549.050781 C 401.1875 548.628906 393.8125 546.726562 388.199219 543.972656 L 367.035156 543.972656 C 366.976562 543.785156 366.921875 543.597656 366.863281 543.402344 L 366.859375 543.402344 C 366.8125 543.246094 366.769531 543.089844 366.722656 542.929688 C 366.707031 542.886719 366.695312 542.839844 366.679688 542.792969 L 366.683594 542.792969 C 364.910156 536.78125 363.636719 530.542969 363.636719 525.035156 C 363.636719 521.898438 364.101562 518.59375 364.855469 515.164062 C 365.050781 515.203125 365.246094 515.238281 365.445312 515.277344 L 353 491.261719 C 352.34375 491.402344 351.675781 491.476562 350.996094 491.476562 C 344.800781 491.476562 338.691406 485.671875 334.101562 476.554688 L 155.175781 476.554688 C 154.984375 476.160156 154.789062 475.769531 154.59375 475.375 L 333.527344 475.375 C 330.160156 468.273438 327.683594 459.34375 326.734375 449.628906 C 325.976562 441.839844 326.292969 434.554688 327.46875 428.308594 C 327.375 420.144531 329.578125 413.015625 335.667969 410.179688 C 336.15625 409.949219 336.652344 409.769531 337.140625 409.578125 C 338.882812 408.414062 340.78125 407.785156 342.816406 407.785156 C 343.644531 407.785156 344.46875 407.898438 345.289062 408.097656 C 353.460938 408.28125 360.726562 413.496094 364.167969 422.148438 C 371.054688 439.457031 380.242188 458.90625 388.710938 475.375 Z M 379.738281 442.84375 L 379.867188 441.667969 L 375.148438 441.667969 C 375.285156 442.058594 375.417969 442.453125 375.546875 442.84375 Z M 383.609375 407.953125 L 360.507812 407.953125 C 360.640625 408.199219 360.777344 408.4375 360.902344 408.679688 C 360.976562 408.828125 361.054688 408.984375 361.128906 409.132812 L 383.480469 409.132812 Z M 660.367188 273.117188 L 147.796875 273.117188 C 147.585938 273.507812 147.378906 273.90625 147.171875 274.296875 L 660.652344 274.296875 C 660.558594 273.90625 660.464844 273.507812 660.367188 273.117188 " fill-opacity="1" fill-rule="nonzero"/></g><g clip-path="url(#f4d3c63baa)"><path fill="#393a3f" d="M 531.964844 512.71875 L 498.738281 512.820312 L 482.125 512.878906 L 465.515625 513.042969 L 465.515625 513.578125 L 482.125 513.738281 L 498.738281 513.792969 L 531.964844 513.894531 L 565.1875 513.769531 L 581.804688 513.707031 L 598.414062 513.535156 L 598.414062 513.085938 L 581.804688 512.914062 L 565.1875 512.84375 Z M 518.03125 251.660156 L 506.027344 251.660156 L 506.027344 252.839844 L 518.03125 252.839844 Z M 524.285156 248.90625 L 524.285156 247.726562 L 516.644531 247.726562 L 516.644531 248.90625 Z M 513.667969 247.726562 L 506.027344 247.726562 L 506.027344 248.90625 L 513.667969 248.90625 Z M 524.285156 243.800781 L 506.027344 243.800781 L 506.027344 244.976562 L 524.285156 244.976562 Z M 532.480469 161.707031 C 534.1875 161.707031 535.566406 160.324219 535.566406 158.621094 C 535.566406 156.921875 534.1875 155.539062 532.480469 155.539062 C 530.777344 155.539062 529.398438 156.921875 529.398438 158.621094 C 529.398438 160.324219 530.777344 161.707031 532.480469 161.707031 Z M 364.792969 161.707031 C 366.496094 161.707031 367.878906 160.324219 367.878906 158.621094 C 367.878906 156.921875 366.496094 155.539062 364.792969 155.539062 C 363.085938 155.539062 361.703125 156.921875 361.703125 158.621094 C 361.703125 160.324219 363.085938 161.707031 364.792969 161.707031 Z M 244.253906 254.214844 L 232.246094 254.214844 L 232.246094 255.394531 L 244.253906 255.394531 Z M 250.507812 251.460938 L 250.507812 250.285156 L 242.863281 250.285156 L 242.863281 251.460938 Z M 239.890625 250.285156 L 232.246094 250.285156 L 232.246094 251.460938 L 239.890625 251.460938 Z M 250.507812 246.355469 L 232.246094 246.355469 L 232.246094 247.535156 L 250.507812 247.535156 Z M 200.851562 161.707031 C 202.554688 161.707031 203.933594 160.324219 203.933594 158.621094 C 203.933594 156.921875 202.554688 155.539062 200.851562 155.539062 C 199.148438 155.539062 197.765625 156.921875 197.765625 158.621094 C 197.765625 160.324219 199.148438 161.707031 200.851562 161.707031 Z M 178.90625 340.832031 L 180.085938 340.832031 L 180.085938 339.574219 L 196.519531 339.574219 L 196.519531 340.832031 L 197.699219 340.832031 L 197.699219 339.574219 L 214.136719 339.574219 L 214.136719 340.832031 L 215.316406 340.832031 L 215.316406 339.574219 L 231.753906 339.574219 L 231.753906 340.832031 L 232.933594 340.832031 L 232.933594 339.574219 L 249.367188 339.574219 L 249.367188 340.832031 L 250.546875 340.832031 L 250.546875 339.574219 L 255.917969 339.574219 L 255.917969 338.398438 L 250.546875 338.398438 L 250.546875 337.140625 L 249.367188 337.140625 L 249.367188 338.398438 L 232.933594 338.398438 L 232.933594 337.140625 L 231.753906 337.140625 L 231.753906 338.398438 L 215.316406 338.398438 L 215.316406 337.140625 L 214.136719 337.140625 L 214.136719 338.398438 L 197.699219 338.398438 L 197.699219 337.140625 L 196.519531 337.140625 L 196.519531 338.398438 L 180.085938 338.398438 L 180.085938 337.140625 L 178.90625 337.140625 L 178.90625 338.398438 L 173.652344 338.398438 L 173.652344 339.574219 L 178.90625 339.574219 Z M 561.871094 295.578125 C 561.871094 294.929688 561.339844 294.398438 560.691406 294.398438 L 408.289062 294.398438 C 407.636719 294.398438 407.109375 294.929688 407.109375 295.578125 C 407.109375 296.234375 407.636719 296.757812 408.289062 296.757812 L 560.691406 296.757812 C 561.339844 296.757812 561.871094 296.234375 561.871094 295.578125 Z M 527.40625 463.261719 L 519.542969 463.261719 C 518.886719 463.261719 518.363281 463.792969 518.363281 464.441406 C 518.363281 465.09375 518.886719 465.621094 519.542969 465.621094 L 527.40625 465.621094 C 528.058594 465.621094 528.585938 465.09375 528.585938 464.441406 C 528.585938 463.792969 528.058594 463.261719 527.40625 463.261719 Z M 529.554688 456.742188 C 529.554688 456.085938 529.023438 455.5625 528.375 455.5625 L 520.507812 455.5625 C 519.859375 455.5625 519.332031 456.085938 519.332031 456.742188 C 519.332031 457.390625 519.859375 457.917969 520.507812 457.917969 L 528.375 457.917969 C 529.023438 457.917969 529.554688 457.390625 529.554688 456.742188 Z M 531.492188 441.332031 C 531.492188 440.679688 530.964844 440.152344 530.3125 440.152344 L 522.445312 440.152344 C 521.796875 440.152344 521.265625 440.679688 521.265625 441.332031 C 521.265625 441.984375 521.796875 442.507812 522.445312 442.507812 L 530.3125 442.507812 C 530.964844 442.507812 531.492188 441.984375 531.492188 441.332031 Z M 532.457031 433.628906 C 532.457031 432.980469 531.933594 432.449219 531.277344 432.449219 L 523.417969 432.449219 C 522.761719 432.449219 522.238281 432.980469 522.238281 433.628906 C 522.238281 434.277344 522.761719 434.808594 523.417969 434.808594 L 531.277344 434.808594 C 531.933594 434.808594 532.457031 434.277344 532.457031 433.628906 Z M 533.429688 425.929688 C 533.429688 425.273438 532.898438 424.75 532.25 424.75 L 524.386719 424.75 C 523.734375 424.75 523.207031 425.273438 523.207031 425.929688 C 523.207031 426.578125 523.734375 427.109375 524.386719 427.109375 L 532.25 427.109375 C 532.898438 427.109375 533.429688 426.578125 533.429688 425.929688 Z M 421.582031 421.375 C 421.464844 422.335938 422.144531 423.121094 423.109375 423.121094 C 424.070312 423.121094 424.953125 422.335938 425.070312 421.375 C 425.195312 420.410156 424.515625 419.628906 423.546875 419.628906 C 422.582031 419.628906 421.707031 420.410156 421.582031 421.375 Z M 435.8125 312.867188 C 435.691406 313.832031 436.375 314.609375 437.335938 314.609375 C 438.300781 314.609375 439.179688 313.832031 439.300781 312.867188 C 439.421875 311.90625 438.738281 311.121094 437.777344 311.121094 C 436.8125 311.121094 435.933594 311.90625 435.8125 312.867188 Z M 453.273438 354.289062 C 452.621094 354.289062 452.09375 354.816406 452.09375 355.46875 C 452.09375 356.117188 452.621094 356.648438 453.273438 356.648438 L 467.726562 356.648438 C 468.375 356.648438 468.90625 356.117188 468.90625 355.46875 C 468.90625 354.816406 468.375 354.289062 467.726562 354.289062 Z M 537.847656 390.785156 C 537.847656 390.136719 537.320312 389.605469 536.667969 389.605469 L 528.804688 389.605469 C 528.152344 389.605469 527.625 390.136719 527.625 390.785156 C 527.625 391.4375 528.152344 391.964844 528.804688 391.964844 L 536.667969 391.964844 C 537.320312 391.964844 537.847656 391.4375 537.847656 390.785156 Z M 538.816406 383.085938 C 538.816406 382.429688 538.285156 381.90625 537.636719 381.90625 L 529.773438 381.90625 C 529.121094 381.90625 528.59375 382.429688 528.59375 383.085938 C 528.59375 383.734375 529.121094 384.261719 529.773438 384.261719 L 537.636719 384.261719 C 538.285156 384.261719 538.816406 383.734375 538.816406 383.085938 Z M 539.785156 375.378906 C 539.785156 374.730469 539.253906 374.199219 538.605469 374.199219 L 530.738281 374.199219 C 530.089844 374.199219 529.558594 374.730469 529.558594 375.378906 C 529.558594 376.03125 530.089844 376.558594 530.738281 376.558594 L 538.605469 376.558594 C 539.253906 376.558594 539.785156 376.03125 539.785156 375.378906 Z M 540.753906 367.679688 C 540.753906 367.023438 540.226562 366.5 539.574219 366.5 L 531.710938 366.5 C 531.058594 366.5 530.53125 367.023438 530.53125 367.679688 C 530.53125 368.328125 531.058594 368.859375 531.710938 368.859375 L 539.574219 368.859375 C 540.226562 368.859375 540.753906 368.328125 540.753906 367.679688 Z M 542.691406 352.273438 C 542.691406 351.617188 542.160156 351.09375 541.511719 351.09375 L 533.648438 351.09375 C 532.996094 351.09375 532.46875 351.617188 532.46875 352.273438 C 532.46875 352.921875 532.996094 353.453125 533.648438 353.453125 L 541.511719 353.453125 C 542.160156 353.453125 542.691406 352.921875 542.691406 352.273438 Z M 543.660156 344.566406 C 543.660156 343.917969 543.128906 343.390625 542.480469 343.390625 L 534.613281 343.390625 C 533.964844 343.390625 533.433594 343.917969 533.433594 344.566406 C 533.433594 345.21875 533.964844 345.746094 534.613281 345.746094 L 542.480469 345.746094 C 543.128906 345.746094 543.660156 345.21875 543.660156 344.566406 Z M 544.628906 336.867188 C 544.628906 336.214844 544.101562 335.6875 543.449219 335.6875 L 535.585938 335.6875 C 534.933594 335.6875 534.40625 336.214844 534.40625 336.867188 C 534.40625 337.515625 534.933594 338.046875 535.585938 338.046875 L 543.449219 338.046875 C 544.101562 338.046875 544.628906 337.515625 544.628906 336.867188 Z M 545.59375 329.164062 C 545.59375 328.511719 545.070312 327.984375 544.414062 327.984375 L 536.554688 327.984375 C 535.898438 327.984375 535.375 328.511719 535.375 329.164062 C 535.375 329.8125 535.898438 330.339844 536.554688 330.339844 L 544.414062 330.339844 C 545.070312 330.339844 545.59375 329.8125 545.59375 329.164062 Z M 546.5625 321.457031 C 546.5625 320.808594 546.039062 320.277344 545.382812 320.277344 L 537.523438 320.277344 C 536.871094 320.277344 536.34375 320.808594 536.34375 321.457031 C 536.34375 322.113281 536.871094 322.636719 537.523438 322.636719 L 545.382812 322.636719 C 546.039062 322.636719 546.5625 322.113281 546.5625 321.457031 Z M 365.824219 326.988281 L 371.371094 326.710938 C 371.644531 323.480469 372.578125 320.5 374.109375 319.746094 C 372.476562 319.574219 370.890625 319.621094 369.683594 320.148438 C 369.605469 316.058594 367.988281 313.882812 366.976562 311.3125 C 366.957031 314.25 367.757812 313.347656 367.449219 317.285156 C 367.28125 319.46875 367.722656 321.707031 367.210938 323.832031 C 366.941406 324.960938 366.417969 325.988281 365.824219 326.988281 Z M 372.554688 326.652344 L 377.175781 326.421875 C 376.828125 322.894531 375.699219 320.738281 374.878906 320.738281 C 374.039062 320.738281 372.878906 322.992188 372.554688 326.652344 Z M 377.265625 327.597656 L 372.476562 327.835938 C 372.46875 328.113281 372.464844 328.394531 372.464844 328.683594 C 372.464844 333.53125 373.890625 336.628906 374.878906 336.628906 C 375.859375 336.628906 377.292969 333.53125 377.292969 328.683594 C 377.292969 328.308594 377.277344 327.953125 377.265625 327.597656 Z M 266.035156 374.988281 C 264.753906 366.558594 267.214844 357.632812 272.636719 351.058594 C 274.625 348.644531 277.082031 346.355469 277.695312 343.292969 C 278.320312 340.132812 276.824219 336.992188 276.136719 333.847656 C 274.832031 327.839844 276.6875 321.238281 280.9375 316.792969 C 284.195312 313.382812 288.707031 311.21875 291.457031 307.386719 C 293.765625 304.175781 294.578125 300.171875 296.15625 296.550781 C 300.59375 286.398438 311.816406 279.644531 322.863281 280.464844 C 325.9375 276.640625 331.882812 274.847656 336.710938 275.703125 C 341.539062 276.554688 345.835938 279.292969 349.589844 282.445312 C 361.410156 280.632812 376.265625 291.902344 380.394531 321.144531 C 379.28125 320.8125 377.734375 320.371094 376.105469 320.046875 C 377.648438 321.359375 378.472656 325.113281 378.472656 328.683594 C 378.472656 333.105469 377.210938 337.808594 374.878906 337.808594 C 372.542969 337.808594 371.285156 333.105469 371.285156 328.683594 C 371.285156 328.421875 371.289062 328.160156 371.296875 327.894531 L 368.625 328.03125 C 369.136719 328.300781 369.519531 329.308594 369.519531 330.519531 C 369.519531 331.941406 368.992188 333.089844 368.347656 333.089844 C 367.699219 333.089844 367.179688 331.941406 367.179688 330.519531 C 367.179688 329.347656 367.539062 328.367188 368.027344 328.058594 L 365.066406 328.203125 C 364.367188 329.304688 363.65625 330.40625 363.179688 331.613281 C 360.988281 337.144531 364.089844 343.417969 363.21875 349.308594 C 362.671875 353 360.601562 356.28125 359.484375 359.84375 C 357.898438 364.902344 359.011719 371.898438 361.339844 376.660156 L 344.972656 376.660156 C 343.949219 372.804688 342.632812 369.308594 342.484375 365.324219 C 341.398438 369.492188 340.917969 373.292969 340.554688 377.589844 C 338.539062 372.15625 337.207031 366.867188 337.074219 361.078125 C 336.5 365.710938 336.300781 370.351562 335.726562 374.988281 Z M 376.652344 534.105469 C 378.464844 536.378906 380.449219 538.53125 382.625 540.488281 C 384.785156 542.449219 387.1875 544.191406 389.835938 545.527344 C 391.167969 546.164062 392.570312 546.683594 394.019531 547.046875 C 395.5 547.367188 396.921875 547.523438 398.355469 547.726562 C 401.230469 548.089844 404.105469 548.449219 406.984375 548.707031 C 412.75 549.257812 418.527344 549.617188 424.320312 549.722656 C 424.464844 549.722656 424.585938 549.609375 424.59375 549.46875 C 424.601562 549.320312 424.484375 549.195312 424.339844 549.1875 C 421.457031 549.027344 418.578125 548.789062 415.707031 548.527344 C 412.832031 548.28125 409.960938 548 407.097656 547.671875 C 404.230469 547.332031 401.363281 547.003906 398.507812 546.609375 C 397.082031 546.402344 395.632812 546.226562 394.289062 545.921875 C 392.9375 545.570312 391.617188 545.078125 390.351562 544.464844 C 385.269531 541.953125 381.09375 537.839844 377.421875 533.472656 C 375.578125 531.277344 373.867188 528.960938 372.265625 526.574219 C 370.644531 524.199219 369.113281 521.746094 367.746094 519.222656 L 367.742188 519.214844 C 367.679688 519.109375 367.550781 519.066406 367.441406 519.121094 C 367.332031 519.175781 367.285156 519.3125 367.339844 519.421875 C 369.921875 524.621094 373.019531 529.554688 376.652344 534.105469 Z M 337.171875 462.839844 C 336.515625 462.445312 335.914062 461.992188 335.332031 461.496094 C 334.757812 460.996094 334.226562 460.429688 333.699219 459.835938 C 333.632812 459.765625 333.53125 459.738281 333.4375 459.773438 C 333.324219 459.820312 333.265625 459.953125 333.308594 460.070312 C 333.921875 461.617188 335.121094 462.9375 336.546875 463.835938 C 337.265625 464.285156 338.023438 464.648438 338.816406 464.898438 C 339.484375 465.109375 340.164062 465.25 340.847656 465.339844 C 343.121094 470.511719 345.480469 475.644531 347.851562 480.773438 C 350.5625 486.472656 353.289062 492.164062 356.089844 497.820312 C 358.898438 503.476562 361.757812 509.101562 364.753906 514.664062 C 364.820312 514.792969 364.980469 514.84375 365.105469 514.777344 C 365.238281 514.714844 365.292969 514.554688 365.230469 514.417969 C 363.832031 511.59375 362.472656 508.746094 361.117188 505.898438 L 357.03125 497.367188 L 348.917969 480.269531 C 346.207031 474.578125 343.5625 468.847656 340.949219 463.113281 C 339.640625 460.246094 338.363281 457.363281 337.125 454.46875 C 335.898438 451.574219 334.636719 448.671875 333.71875 445.679688 L 333.714844 445.664062 C 333.683594 445.546875 333.558594 445.484375 333.4375 445.515625 C 333.320312 445.546875 333.25 445.671875 333.289062 445.792969 C 335.035156 451.90625 337.5625 457.707031 340.039062 463.515625 C 340.179688 463.835938 340.328125 464.160156 340.472656 464.480469 C 340.042969 464.296875 339.609375 464.117188 339.199219 463.925781 C 338.5 463.589844 337.8125 463.242188 337.171875 462.839844 Z M 368.132812 350.886719 C 368.578125 351.171875 369.082031 351.351562 369.59375 351.476562 C 370.109375 351.578125 370.628906 351.628906 371.144531 351.578125 C 371.402344 351.558594 371.652344 351.507812 371.90625 351.472656 C 372.15625 351.398438 372.398438 351.332031 372.632812 351.238281 C 372.707031 351.203125 372.761719 351.136719 372.777344 351.058594 C 372.796875 350.929688 372.707031 350.808594 372.578125 350.789062 C 371.605469 350.636719 370.71875 350.535156 369.855469 350.328125 C 369.425781 350.226562 369.011719 350.09375 368.59375 349.953125 C 368.183594 349.808594 367.761719 349.609375 367.375 349.421875 L 367.324219 349.394531 C 367.246094 349.359375 367.15625 349.359375 367.070312 349.410156 C 366.941406 349.480469 366.902344 349.648438 366.976562 349.773438 C 367.269531 350.273438 367.679688 350.601562 368.132812 350.886719 Z M 612.207031 551.015625 L 591.78125 520.320312 L 591.78125 520.050781 L 577.007812 519.886719 L 562.234375 519.835938 L 532.683594 519.730469 L 503.132812 519.859375 L 488.359375 519.921875 L 473.582031 520.09375 L 473.582031 520.546875 L 473.929688 520.550781 L 475.09375 521.328125 L 479.007812 528.050781 L 472.117188 527.070312 C 472.160156 527.054688 472.207031 527.039062 472.246094 527.015625 C 472.515625 526.882812 472.738281 526.679688 472.941406 526.464844 C 473.132812 526.234375 473.300781 525.984375 473.402344 525.703125 C 473.503906 525.421875 473.574219 525.128906 473.542969 524.816406 C 473.53125 524.757812 473.507812 524.699219 473.472656 524.652344 C 473.367188 524.527344 473.175781 524.515625 473.054688 524.621094 L 473.039062 524.628906 C 472.824219 524.816406 472.667969 525 472.5 525.171875 C 472.335938 525.34375 472.195312 525.523438 472.046875 525.699219 C 471.90625 525.878906 471.753906 526.050781 471.617188 526.246094 C 471.46875 526.441406 471.316406 526.632812 471.167969 526.878906 L 471.160156 526.886719 C 471.160156 526.894531 471.160156 526.902344 471.15625 526.910156 L 471.085938 526.804688 L 464.292969 525.367188 C 464.335938 525.203125 464.382812 525.039062 464.414062 524.878906 C 464.535156 524.3125 464.566406 523.738281 464.570312 523.160156 C 464.554688 522.582031 464.511719 522.003906 464.382812 521.441406 C 464.261719 520.882812 464.09375 520.324219 463.828125 519.808594 C 463.78125 519.722656 463.691406 519.660156 463.589844 519.660156 C 463.4375 519.65625 463.308594 519.78125 463.308594 519.933594 C 463.296875 520.496094 463.332031 521.035156 463.34375 521.574219 L 463.390625 523.179688 L 463.421875 524.785156 C 463.425781 525.132812 463.4375 525.488281 463.441406 525.835938 L 460.054688 525.351562 C 448.265625 523.589844 436.472656 521.796875 424.789062 519.496094 C 421.878906 518.914062 418.953125 518.324219 416.136719 517.496094 C 415.445312 517.28125 414.734375 517.050781 414.144531 516.746094 C 413.828125 516.570312 413.773438 516.535156 413.539062 516.15625 L 412.9375 515.253906 C 412.15625 513.992188 411.375 512.726562 410.617188 511.445312 C 407.566406 506.332031 404.582031 501.167969 401.597656 496.011719 L 391.046875 477.695312 L 517.0625 477.695312 L 524.003906 504.222656 L 574.003906 504.222656 L 567.066406 477.695312 L 642.996094 477.695312 C 650.40625 477.695312 656.625 472.128906 657.441406 464.773438 L 675.710938 300.054688 C 676.664062 291.453125 669.929688 283.925781 661.265625 283.925781 L 405.414062 283.925781 C 398.003906 283.925781 391.785156 289.496094 390.96875 296.855469 L 374.964844 441.136719 C 376.476562 445.554688 377.722656 449.859375 378.523438 453.816406 L 395.871094 297.398438 C 396.410156 292.53125 400.511719 288.859375 405.414062 288.859375 L 661.265625 288.859375 C 664.03125 288.859375 666.574219 289.996094 668.417969 292.054688 C 670.265625 294.113281 671.113281 296.761719 670.808594 299.511719 L 652.539062 464.230469 C 652 469.09375 647.894531 472.761719 642.996094 472.761719 L 527.414062 472.761719 C 527.53125 472.582031 527.613281 472.375 527.613281 472.144531 C 527.613281 471.492188 527.089844 470.964844 526.433594 470.964844 L 518.574219 470.964844 C 517.921875 470.964844 517.394531 471.492188 517.394531 472.144531 C 517.394531 472.375 517.476562 472.582031 517.597656 472.761719 L 388.203125 472.761719 L 383.738281 465.019531 C 383.679688 464.917969 383.546875 464.878906 383.433594 464.9375 C 383.328125 464.996094 383.289062 465.136719 383.347656 465.246094 L 387.507812 472.761719 L 387.375 472.761719 C 388.226562 474.4375 389.074219 476.082031 389.914062 477.695312 L 390.230469 477.695312 L 392 480.894531 L 400.796875 496.472656 C 403.746094 501.652344 406.691406 506.835938 409.714844 511.980469 C 410.464844 513.269531 411.238281 514.550781 412.023438 515.828125 L 412.648438 516.789062 C 412.78125 516.960938 412.792969 517.074219 413.046875 517.308594 C 413.257812 517.519531 413.4375 517.601562 413.625 517.710938 C 414.363281 518.09375 415.082031 518.324219 415.808594 518.558594 C 418.707031 519.433594 421.632812 520.042969 424.566406 520.648438 C 436.300781 522.902344 448.109375 524.617188 459.917969 526.316406 L 477.648438 528.746094 L 495.40625 530.925781 C 495.550781 530.941406 495.6875 530.839844 495.699219 530.695312 C 495.722656 530.546875 495.617188 530.414062 495.476562 530.398438 L 488.914062 529.460938 L 494.714844 520.742188 L 503.132812 520.78125 L 532.683594 520.90625 L 562.234375 520.804688 L 577.007812 520.753906 L 584.148438 520.667969 L 604.339844 551.015625 L 596.863281 551.015625 L 586.144531 538.894531 L 581.199219 542.140625 L 590.355469 551.015625 L 560.675781 551.015625 L 587.664062 533.898438 L 549.640625 533.898438 L 555.359375 544.398438 C 555.796875 545.203125 555.464844 546.210938 554.632812 546.59375 C 553.085938 546.484375 551.339844 545.757812 549.855469 544.730469 C 549.855469 544.691406 549.871094 544.664062 549.855469 544.632812 C 549.222656 543.136719 549.207031 541.480469 549.003906 539.78125 C 548.914062 538.925781 548.726562 538.050781 548.390625 537.203125 C 548.054688 536.355469 547.578125 535.585938 547.019531 534.890625 C 545.871094 533.53125 544.488281 532.460938 543.09375 531.511719 C 541.695312 530.554688 540.300781 529.65625 539.046875 528.558594 C 538.96875 528.484375 538.84375 528.480469 538.757812 528.554688 C 538.660156 528.632812 538.644531 528.769531 538.726562 528.867188 C 539.8125 530.21875 541.191406 531.273438 542.503906 532.3125 C 543.816406 533.347656 545.121094 534.367188 546.105469 535.632812 C 546.609375 536.25 547.046875 536.914062 547.347656 537.628906 C 547.660156 538.339844 547.808594 539.128906 547.972656 539.933594 C 548.21875 541.246094 548.367188 542.699219 548.941406 544.019531 C 548.21875 543.398438 547.589844 542.714844 547.160156 542.003906 L 543.402344 535.71875 L 536.71875 534.109375 C 536.707031 534.089844 536.695312 534.070312 536.683594 534.058594 C 536.625 533.988281 536.527344 533.953125 536.433594 533.984375 C 536.410156 533.992188 536.402344 534.015625 536.382812 534.027344 L 536.296875 534.007812 L 526.894531 541.273438 C 526.90625 541.21875 526.914062 541.167969 526.917969 541.117188 C 526.972656 540.625 526.941406 540.132812 526.867188 539.644531 C 526.785156 539.15625 526.65625 538.675781 526.453125 538.226562 C 526.25 537.777344 526.007812 537.347656 525.671875 536.976562 C 525.605469 536.914062 525.507812 536.875 525.417969 536.894531 C 525.265625 536.917969 525.164062 537.066406 525.191406 537.21875 C 525.265625 537.683594 525.375 538.117188 525.457031 538.546875 C 525.535156 538.984375 525.636719 539.410156 525.707031 539.84375 C 525.796875 540.269531 525.851562 540.703125 525.925781 541.140625 C 525.964844 541.398438 526.007812 541.667969 526.046875 541.933594 L 518.578125 547.707031 C 516.453125 549.347656 514 550.453125 511.410156 551.015625 L 504.152344 551.015625 L 494.953125 549.746094 C 495.515625 549.242188 496.023438 548.65625 496.378906 547.964844 C 496.835938 547.125 497.050781 546.128906 496.910156 545.199219 C 496.890625 545.089844 496.796875 544.992188 496.679688 544.972656 C 496.53125 544.953125 496.398438 545.054688 496.375 545.203125 C 496.25 546.03125 495.953125 546.78125 495.503906 547.441406 C 495.308594 547.714844 495.082031 547.964844 494.851562 548.214844 C 494.839844 547.671875 494.769531 547.136719 494.640625 546.613281 C 494.398438 545.597656 493.972656 544.632812 493.335938 543.832031 C 493.277344 543.753906 493.171875 543.71875 493.078125 543.757812 C 492.960938 543.804688 492.902344 543.933594 492.945312 544.050781 C 493.285156 544.960938 493.535156 545.867188 493.640625 546.792969 C 493.746094 547.71875 493.742188 548.644531 493.601562 549.546875 C 493.59375 549.578125 493.605469 549.605469 493.605469 549.636719 L 430.242188 549.183594 L 427.46875 551.015625 L 369.421875 551.015625 C 369.570312 551.410156 369.71875 551.804688 369.863281 552.195312 L 675.804688 552.195312 L 675.804688 551.015625 Z M 194.414062 551.015625 L 194.414062 552.195312 L 326.320312 552.195312 C 334.316406 552.195312 336.613281 551.015625 336.613281 551.015625 C 337.65625 550.734375 338.652344 550.355469 339.59375 549.894531 C 346.363281 546.585938 350.441406 538.878906 348.511719 530.941406 L 325.9375 438.117188 C 324.113281 430.617188 317.398438 425.34375 309.6875 425.34375 L 183.574219 425.34375 C 172.738281 425.34375 164.765625 435.484375 167.320312 446.007812 L 189.894531 538.832031 C 191.359375 544.863281 195.996094 549.445312 201.765625 551.015625 Z M 377.542969 569.421875 C 377.542969 569.421875 377.515625 569.640625 377.449219 570.011719 L 377.453125 570.011719 C 376.628906 574.9375 369.117188 610.25 322.507812 610.25 C 305.445312 610.25 293.113281 607.433594 286.246094 605.308594 C 288.683594 619.253906 300.847656 629.859375 315.496094 629.859375 L 405.15625 629.859375 C 427.355469 629.859375 449.019531 620.613281 449.019531 620.613281 L 442.054688 661.855469 L 487.765625 661.855469 C 487.765625 661.855469 493.054688 620.613281 495.335938 592.945312 C 496.671875 576.742188 484.734375 571.542969 474.605469 570.011719 L 556.84375 570.011719 L 551.503906 615.960938 L 568.402344 618.761719 L 574.070312 570.011719 L 634.933594 570.011719 L 642.011719 630.953125 L 659.574219 633.859375 L 652.160156 570.011719 L 675.804688 570.011719 L 675.804688 568.835938 L 377.238281 568.835938 C 377.429688 569.210938 377.542969 569.421875 377.542969 569.421875 Z M 275.425781 568.835938 L 194.414062 568.835938 L 194.414062 570.011719 L 233.390625 570.011719 C 233.351562 570.1875 233.371094 570.371094 233.320312 570.546875 L 233.164062 571.734375 C 233.042969 572.527344 233 573.328125 232.921875 574.125 L 232.789062 576.527344 L 232.726562 577.722656 L 232.691406 578.328125 C 232.707031 578.527344 232.558594 578.714844 232.941406 578.957031 C 233.375 578.804688 233.269531 578.59375 233.332031 578.398438 L 233.4375 577.804688 L 233.652344 576.621094 L 234.074219 574.257812 C 234.175781 573.460938 234.320312 572.675781 234.386719 571.878906 L 234.507812 570.6875 C 234.496094 570.460938 234.589844 570.242188 234.550781 570.011719 L 275.445312 570.011719 C 275.433594 569.621094 275.429688 569.230469 275.425781 568.835938 Z M 475.816406 312.863281 C 475.816406 312.214844 475.289062 311.683594 474.636719 311.683594 L 457.074219 311.683594 C 456.421875 311.683594 455.894531 312.214844 455.894531 312.863281 C 455.894531 313.515625 456.421875 314.042969 457.074219 314.042969 L 474.636719 314.042969 C 475.289062 314.042969 475.816406 313.515625 475.816406 312.863281 Z M 429.203125 312.867188 C 429.085938 313.832031 429.765625 314.609375 430.730469 314.609375 C 431.691406 314.609375 432.574219 313.832031 432.691406 312.867188 C 432.816406 311.90625 432.136719 311.121094 431.167969 311.121094 C 430.210938 311.121094 429.328125 311.90625 429.203125 312.867188 Z M 424.125 314.609375 C 423.164062 314.609375 422.476562 313.832031 422.601562 312.867188 C 422.722656 311.90625 423.601562 311.121094 424.566406 311.121094 C 425.527344 311.121094 426.210938 311.90625 426.089844 312.867188 C 425.96875 313.832031 425.089844 314.609375 424.125 314.609375 " fill-opacity="1" fill-rule="nonzero"/></g><g clip-path="url(#0a98bee90e)"><path fill="#f6836b" d="M 589.324219 504.222656 L 579.820312 504.222656 L 572.886719 477.695312 L 567.066406 477.695312 L 574.003906 504.222656 L 474.601562 504.222656 C 469.582031 504.222656 465.515625 508.289062 465.515625 513.308594 L 598.414062 513.308594 C 598.414062 508.289062 594.347656 504.222656 589.324219 504.222656 Z M 267.859375 503.601562 L 248.277344 503.601562 C 247.023438 503.601562 245.964844 504.542969 245.820312 505.785156 L 229.964844 643.101562 C 229.800781 644.566406 230.945312 645.855469 232.421875 645.855469 L 252.007812 645.855469 C 253.261719 645.855469 254.316406 644.917969 254.464844 643.667969 L 270.316406 506.355469 C 270.488281 504.886719 269.339844 503.601562 267.859375 503.601562 Z M 559.789062 551.578125 L 567.734375 551.578125 L 585.832031 539.691406 L 596.347656 551.578125 L 602.214844 551.578125 L 587.664062 533.898438 Z M 669.054688 283.925781 L 661.265625 283.925781 C 669.929688 283.925781 676.664062 291.453125 675.710938 300.054688 L 657.441406 464.773438 C 656.625 472.128906 650.40625 477.695312 642.996094 477.695312 L 650.785156 477.695312 C 658.1875 477.695312 664.414062 472.128906 665.230469 464.773438 L 683.5 300.054688 C 684.453125 291.453125 677.710938 283.925781 669.054688 283.925781 Z M 475.816406 312.863281 C 475.816406 312.214844 475.289062 311.683594 474.636719 311.683594 L 457.074219 311.683594 C 456.421875 311.683594 455.894531 312.214844 455.894531 312.863281 C 455.894531 313.515625 456.421875 314.042969 457.074219 314.042969 L 474.636719 314.042969 C 475.289062 314.042969 475.816406 313.515625 475.816406 312.863281 Z M 431.167969 311.121094 C 430.210938 311.121094 429.328125 311.90625 429.203125 312.867188 C 429.085938 313.832031 429.765625 314.609375 430.730469 314.609375 C 431.691406 314.609375 432.574219 313.832031 432.691406 312.867188 C 432.816406 311.90625 432.136719 311.121094 431.167969 311.121094 Z M 424.566406 311.121094 C 423.601562 311.121094 422.722656 311.90625 422.601562 312.867188 C 422.476562 313.832031 423.164062 314.609375 424.125 314.609375 C 425.089844 314.609375 425.96875 313.832031 426.089844 312.867188 C 426.210938 311.90625 425.527344 311.121094 424.566406 311.121094 Z M 439.300781 312.867188 C 439.179688 313.832031 438.300781 314.609375 437.335938 314.609375 C 436.375 314.609375 435.691406 313.832031 435.8125 312.867188 C 435.933594 311.90625 436.8125 311.121094 437.777344 311.121094 C 438.738281 311.121094 439.421875 311.90625 439.300781 312.867188 " fill-opacity="1" fill-rule="nonzero"/></g></svg>