<svg xmlns="http://www.w3.org/2000/svg" xmlns:xlink="http://www.w3.org/1999/xlink" width="1080" zoomAndPan="magnify" viewBox="0 0 810 809.999993" height="1080" preserveAspectRatio="xMidYMid meet" version="1.0"><defs><clipPath id="1250b6a02f"><path d="M 136 160 L 678 160 L 678 662.277344 L 136 662.277344 Z M 136 160 " clip-rule="nonzero"/></clipPath></defs><rect x="-81" width="972" fill="#ffffff" y="-80.999999" height="971.999992" fill-opacity="1"/><rect x="-81" width="972" fill="#ffffff" y="-80.999999" height="971.999992" fill-opacity="1"/><g clip-path="url(#1250b6a02f)"><path fill="#e7e8ff" d="M 288.503906 662.222656 L 541.070312 662.222656 C 570.199219 662.222656 598.320312 651.570312 620.148438 632.273438 L 646.230469 609.214844 C 690.554688 570.03125 686.847656 499.75 638.644531 465.457031 C 599.851562 437.855469 588.5625 385.160156 612.648438 344.070312 L 615.371094 339.429688 C 637.140625 302.289062 632.070312 255.269531 602.878906 223.636719 L 567.675781 185.484375 C 532.871094 147.769531 471.945312 152.683594 443.628906 195.496094 C 422.097656 228.046875 380.0625 240.023438 344.625 223.703125 L 329.230469 216.617188 C 285.023438 196.257812 232.582031 211.128906 205.621094 251.671875 L 188.332031 277.660156 C 171.230469 303.375 169.136719 336.269531 182.84375 363.949219 C 198.597656 395.765625 193.304688 433.992188 169.503906 460.328125 L 162.566406 468 C 119.242188 515.933594 131.03125 591.628906 186.875 624.097656 L 221.273438 644.097656 C 241.695312 655.96875 264.886719 662.222656 288.503906 662.222656 Z M 288.503906 662.222656 " fill-opacity="1" fill-rule="nonzero"/></g><path fill="#032068" d="M 662.199219 588.355469 C 662.625 620.769531 640.578125 648.136719 629.378906 657.722656 L 612.214844 657.722656 C 624.972656 614.472656 646.066406 592.96875 657.886719 585.8125 C 659.855469 584.621094 662.171875 586.050781 662.199219 588.355469 Z M 662.199219 588.355469 " fill-opacity="1" fill-rule="nonzero"/><path fill="#ffffff" d="M 664.011719 482 C 681.59375 548.28125 637.277344 626.78125 618.222656 656.003906 L 579.605469 656.003906 C 596.195312 530.945312 624 500.550781 659.15625 480.015625 C 661.042969 478.914062 663.453125 479.886719 664.011719 482 Z M 664.011719 482 " fill-opacity="1" fill-rule="nonzero"/><path fill="#032068" d="M 660.019531 481.5 C 660.949219 480.960938 662.089844 481.445312 662.355469 482.445312 C 671.015625 515.097656 664.453125 550.898438 653.242188 582.320312 C 642.234375 613.15625 626.824219 639.570312 617.292969 654.28125 L 581.570312 654.28125 C 589.824219 592.96875 600.796875 554.878906 613.941406 529.609375 C 627.175781 504.164062 642.652344 491.648438 660.019531 481.5 Z M 665.671875 481.558594 C 664.8125 478.324219 661.140625 476.863281 658.292969 478.527344 C 640.503906 488.917969 624.5 501.867188 610.898438 528.019531 C 597.339844 554.078125 586.210938 593.171875 577.90625 655.777344 L 577.648438 657.722656 L 619.148438 657.722656 L 619.660156 656.945312 C 629.226562 642.269531 645.148438 615.214844 656.472656 583.480469 C 667.789062 551.773438 674.59375 515.1875 665.671875 481.558594 Z M 665.671875 481.558594 " fill-opacity="1" fill-rule="evenodd"/><path fill="#032068" d="M 601.753906 522.777344 C 616.9375 578.320312 599.554688 636.042969 588.1875 657.722656 L 559.871094 657.722656 C 553.503906 590.03125 579.390625 540.804688 596.410156 521.453125 C 598.089844 519.542969 601.082031 520.324219 601.753906 522.777344 Z M 601.753906 522.777344 " fill-opacity="1" fill-rule="nonzero"/><path fill="#032068" d="M 639.972656 529.164062 L 649.210938 503.140625 L 652.445312 504.296875 L 631.289062 563.898438 L 645.1875 559.714844 L 646.175781 563.011719 L 629.859375 567.921875 L 610.613281 622.128906 L 627.933594 615.671875 L 629.132812 618.898438 L 609.113281 626.363281 L 598.386719 656.578125 L 595.152344 655.425781 L 616.9375 594.058594 L 608.882812 571.40625 L 612.117188 570.25 L 618.757812 588.929688 L 638.027344 534.644531 L 632.023438 514.535156 L 635.3125 513.550781 Z M 639.972656 529.164062 " fill-opacity="1" fill-rule="evenodd"/><path fill="#ffffff" d="M 587.269531 567.128906 L 591.648438 542.988281 L 595.023438 543.601562 L 586.136719 592.609375 L 597.6875 586.511719 L 599.285156 589.558594 L 585.359375 596.910156 L 577.738281 638.941406 L 587.285156 631.417969 L 589.40625 634.125 L 576.8125 644.046875 L 574.429688 657.171875 L 571.054688 656.554688 L 577.160156 622.890625 L 567.089844 609.730469 L 569.8125 607.636719 L 577.988281 618.320312 L 586.5 571.367188 L 578.347656 562.53125 L 580.867188 560.195312 Z M 587.269531 567.128906 " fill-opacity="1" fill-rule="evenodd"/><path fill="#ffffff" d="M 284.304688 251.09375 L 290.90625 252.695312 C 292.082031 252.980469 292.199219 254.605469 291.078125 255.058594 L 284.925781 257.539062 C 284.554688 257.691406 284.277344 258.011719 284.183594 258.402344 L 282.472656 265.460938 C 282.195312 266.597656 280.648438 266.757812 280.144531 265.707031 L 276.960938 259.089844 C 276.808594 258.769531 276.523438 258.53125 276.179688 258.433594 L 268.421875 256.242188 C 267.269531 255.917969 267.195312 254.308594 268.316406 253.882812 L 275.371094 251.175781 C 275.714844 251.042969 275.984375 250.769531 276.105469 250.417969 L 278.777344 242.640625 C 279.171875 241.496094 280.800781 241.53125 281.148438 242.691406 L 283.40625 250.242188 C 283.53125 250.664062 283.875 250.988281 284.304688 251.09375 Z M 284.304688 251.09375 " fill-opacity="1" fill-rule="nonzero"/><path fill="#ffffff" d="M 231.539062 316.25 L 233.242188 317.632812 C 234.179688 318.394531 233.589844 319.914062 232.382812 319.839844 L 230.257812 319.710938 C 229.855469 319.6875 229.46875 319.855469 229.214844 320.167969 L 227.539062 322.234375 C 226.804688 323.140625 225.335938 322.625 225.332031 321.457031 L 225.320312 318.714844 C 225.316406 318.359375 225.164062 318.019531 224.894531 317.785156 L 222.589844 315.765625 C 221.691406 314.976562 222.3125 313.496094 223.507812 313.589844 L 226.253906 313.804688 C 226.621094 313.832031 226.980469 313.699219 227.238281 313.433594 L 229.410156 311.21875 C 230.257812 310.355469 231.714844 311.085938 231.527344 312.28125 L 231.09375 315.089844 C 231.023438 315.527344 231.195312 315.96875 231.539062 316.25 Z M 231.539062 316.25 " fill-opacity="1" fill-rule="nonzero"/><path fill="#f4ad5e" d="M 643.449219 417.226562 L 638.503906 423.9375 C 638.203125 424.347656 637.714844 424.542969 637.234375 424.449219 L 631.125 423.234375 C 629.808594 422.972656 629.015625 424.726562 630.03125 425.648438 L 634.832031 430.019531 C 635.183594 430.339844 635.347656 430.832031 635.269531 431.3125 L 634.0625 438.523438 C 633.835938 439.878906 635.410156 440.71875 636.300781 439.71875 L 641.234375 434.175781 C 641.523438 433.851562 641.945312 433.695312 642.363281 433.753906 L 648.070312 434.578125 C 649.355469 434.765625 650.085938 433.066406 649.105469 432.160156 L 644.863281 428.234375 C 644.519531 427.917969 644.359375 427.4375 644.433594 426.964844 L 645.769531 418.304688 C 645.988281 416.886719 644.28125 416.097656 643.449219 417.226562 Z M 643.449219 417.226562 " fill-opacity="1" fill-rule="nonzero"/><path fill="#ffffff" d="M 344.601562 239.511719 C 344.601562 229.574219 352.648438 221.523438 362.582031 221.523438 L 567.15625 221.523438 C 577.085938 221.523438 585.140625 229.574219 585.140625 239.511719 L 585.140625 639.675781 C 585.140625 649.609375 577.085938 657.664062 567.15625 657.664062 L 362.582031 657.664062 C 352.648438 657.664062 344.601562 649.609375 344.601562 639.675781 Z M 344.601562 239.511719 " fill-opacity="1" fill-rule="nonzero"/><path fill="#032068" d="M 343.101562 239.511719 C 343.101562 228.746094 351.824219 220.023438 362.582031 220.023438 L 567.15625 220.023438 C 577.917969 220.023438 586.636719 228.746094 586.636719 239.511719 L 586.636719 639.675781 C 586.636719 650.4375 577.917969 659.164062 567.15625 659.164062 L 362.582031 659.164062 C 351.824219 659.164062 343.101562 650.4375 343.101562 639.675781 Z M 362.582031 223.019531 C 353.480469 223.019531 346.097656 230.402344 346.097656 239.511719 L 346.097656 639.675781 C 346.097656 648.78125 353.480469 656.164062 362.582031 656.164062 L 567.15625 656.164062 C 576.261719 656.164062 583.640625 648.78125 583.640625 639.675781 L 583.640625 239.511719 C 583.640625 230.402344 576.261719 223.019531 567.15625 223.019531 Z M 362.582031 223.019531 " fill-opacity="1" fill-rule="evenodd"/><path fill="#e7e8ff" d="M 534.910156 381.894531 C 534.910156 420.808594 503.378906 452.351562 464.480469 452.351562 C 425.582031 452.351562 394.050781 420.808594 394.050781 381.894531 C 394.050781 342.984375 425.582031 311.4375 464.480469 311.4375 C 503.378906 311.4375 534.910156 342.984375 534.910156 381.894531 Z M 534.910156 381.894531 " fill-opacity="1" fill-rule="nonzero"/><path fill="#032068" d="M 417.042969 236.144531 L 409.246094 221.519531 L 520.496094 221.519531 L 511.332031 236.800781 C 508.621094 241.316406 503.746094 244.082031 498.480469 244.082031 L 430.261719 244.082031 C 424.730469 244.082031 419.648438 241.027344 417.042969 236.144531 Z M 417.042969 236.144531 " fill-opacity="1" fill-rule="nonzero"/><path fill="#032068" d="M 582.1875 230.542969 L 346.015625 230.542969 C 353.832031 222.722656 361.300781 221.269531 364.058594 221.519531 L 564.148438 221.519531 C 573.769531 221.519531 580.183594 227.535156 582.1875 230.542969 Z M 582.1875 230.542969 " fill-opacity="1" fill-rule="nonzero"/><path fill="#032068" d="M 582.007812 649.113281 L 347.597656 649.113281 C 355.722656 657.058594 360.417969 658.535156 363.28125 658.28125 L 566.324219 658.28125 C 576.324219 658.28125 579.925781 652.167969 582.007812 649.113281 Z M 582.007812 649.113281 " fill-opacity="1" fill-rule="nonzero"/><path fill="#f4ad5e" d="M 379.066406 278.460938 C 379.066406 276.804688 380.40625 275.460938 382.0625 275.460938 L 461.863281 275.460938 C 463.519531 275.460938 464.863281 276.804688 464.863281 278.460938 L 464.863281 281.660156 C 464.863281 283.316406 463.519531 284.65625 461.863281 284.65625 L 382.0625 284.65625 C 380.40625 284.65625 379.066406 283.316406 379.066406 281.660156 Z M 379.066406 278.460938 " fill-opacity="1" fill-rule="nonzero"/><path fill="#032068" d="M 379.066406 480.832031 C 379.066406 479.179688 380.40625 477.835938 382.0625 477.835938 L 461.863281 477.835938 C 463.519531 477.835938 464.863281 479.179688 464.863281 480.832031 L 464.863281 484.035156 C 464.863281 485.6875 463.519531 487.03125 461.863281 487.03125 L 382.0625 487.03125 C 380.40625 487.03125 379.066406 485.6875 379.066406 484.035156 Z M 379.066406 480.832031 " fill-opacity="1" fill-rule="nonzero"/><path fill="#032068" d="M 379.066406 560.285156 C 379.066406 558.628906 380.40625 557.285156 382.0625 557.285156 L 430.015625 557.285156 C 431.667969 557.285156 433.011719 558.628906 433.011719 560.285156 L 433.011719 563.28125 C 433.011719 564.9375 431.667969 566.28125 430.015625 566.28125 L 382.0625 566.28125 C 380.40625 566.28125 379.066406 564.9375 379.066406 563.28125 Z M 379.066406 560.285156 " fill-opacity="1" fill-rule="nonzero"/><path fill="#e7e8ff" d="M 379.066406 503.320312 C 379.066406 501.664062 380.40625 500.320312 382.0625 500.320312 L 542.402344 500.320312 C 544.054688 500.320312 545.398438 501.664062 545.398438 503.320312 L 545.398438 533.300781 C 545.398438 534.957031 544.054688 536.300781 542.402344 536.300781 L 382.0625 536.300781 C 380.40625 536.300781 379.066406 534.957031 379.066406 533.300781 Z M 379.066406 503.320312 " fill-opacity="1" fill-rule="nonzero"/><path fill="#e7e8ff" d="M 379.066406 581.269531 C 379.066406 579.613281 380.40625 578.273438 382.0625 578.273438 L 542.402344 578.273438 C 544.054688 578.273438 545.398438 579.613281 545.398438 581.269531 L 545.398438 611.253906 C 545.398438 612.910156 544.054688 614.25 542.402344 614.25 L 382.0625 614.25 C 380.40625 614.25 379.066406 612.910156 379.066406 611.253906 Z M 379.066406 581.269531 " fill-opacity="1" fill-rule="nonzero"/><path fill="#032068" d="M 565.253906 242.953125 L 568.25 242.953125 L 568.25 255.214844 L 565.253906 255.214844 Z M 565.253906 242.953125 " fill-opacity="1" fill-rule="evenodd"/><path fill="#032068" d="M 557.59375 244.484375 L 560.589844 244.484375 L 560.589844 255.214844 L 557.59375 255.214844 Z M 557.59375 244.484375 " fill-opacity="1" fill-rule="evenodd"/><path fill="#032068" d="M 549.933594 247.550781 L 552.929688 247.550781 L 552.929688 255.214844 L 549.933594 255.214844 Z M 549.933594 247.550781 " fill-opacity="1" fill-rule="evenodd"/><path fill="#032068" d="M 542.273438 250.617188 L 545.269531 250.617188 L 545.269531 255.214844 L 542.273438 255.214844 Z M 542.273438 250.617188 " fill-opacity="1" fill-rule="evenodd"/><path fill="#ffffff" d="M 465.15625 382.746094 C 445.332031 382.746094 429 397.914062 426.804688 417.445312 C 426.527344 419.914062 428.566406 421.9375 431.050781 421.9375 L 499.261719 421.9375 C 501.742188 421.9375 503.78125 419.914062 503.503906 417.445312 C 501.3125 397.914062 484.976562 382.746094 465.15625 382.746094 Z M 465.15625 382.746094 " fill-opacity="1" fill-rule="nonzero"/><path fill="#ffffff" d="M 484.164062 359.691406 C 484.164062 369.875 475.910156 378.132812 465.730469 378.132812 C 455.546875 378.132812 447.292969 369.875 447.292969 359.691406 C 447.292969 349.503906 455.546875 341.246094 465.730469 341.246094 C 475.910156 341.246094 484.164062 349.503906 484.164062 359.691406 Z M 484.164062 359.691406 " fill-opacity="1" fill-rule="nonzero"/><path fill="#efcb96" d="M 308.765625 419.429688 L 314.855469 438.269531 C 317.289062 447.121094 308.765625 456.445312 288.472656 456.445312 C 272.238281 456.445312 268.992188 447.171875 269.804688 439.660156 L 274.671875 413.796875 C 270.613281 409.769531 267.367188 407.355469 267.367188 388.042969 C 267.367188 363.902344 280.355469 355.050781 295.777344 355.050781 C 311.199219 355.050781 324.191406 367.910156 324.191406 391.261719 C 324.191406 411.382812 313.367188 417.820312 308.765625 419.429688 Z M 308.765625 419.429688 " fill-opacity="1" fill-rule="nonzero"/><path fill="#032068" d="M 347.285156 401.777344 C 359.363281 414.378906 357.742188 445.402344 355.890625 454.855469 C 336.328125 440.34375 323.09375 435.539062 316.238281 434.988281 C 315.132812 434.898438 314.933594 437.464844 314.160156 437.574219 L 308.347656 418.320312 C 317.089844 415.957031 322.648438 408.078125 323.445312 389.964844 C 324.082031 375.476562 316.824219 365.550781 313.117188 362.398438 C 300.402344 361.613281 294.042969 377.363281 290.070312 383.664062 C 286.894531 388.707031 284.507812 387.867188 283.714844 386.816406 C 279.742188 377.363281 272.589844 376.578125 271 386.816406 C 269.726562 395.007812 275.769531 399.15625 278.945312 400.203125 L 269.804688 440.355469 C 268.738281 440.417969 267.726562 436.878906 267.726562 435.300781 C 250.742188 437.191406 232.089844 446.171875 226.519531 449.898438 C 224.136719 424.695312 247.160156 405.71875 253.515625 389.964844 C 259.875 374.214844 251.132812 366.339844 257.492188 356.101562 C 262.203125 348.511719 271 347.4375 276.5625 345.859375 C 282.125 344.285156 285.304688 337.984375 291.660156 334.835938 C 302.785156 330.898438 313.378906 340.609375 316.292969 347.4375 C 318.148438 347.175781 323.445312 347.90625 329.800781 352.949219 C 348.078125 365.550781 332.1875 386.027344 347.285156 401.777344 Z M 347.285156 401.777344 " fill-opacity="1" fill-rule="nonzero"/><path fill="#032068" d="M 292.621094 418.421875 C 302.089844 420.640625 307.617188 419.808594 309.195312 419.117188 L 311.5625 426.742188 C 301.460938 427.851562 294.726562 421.660156 292.621094 418.421875 Z M 292.621094 418.421875 " fill-opacity="1" fill-rule="nonzero"/><path fill="#f4ad5e" d="M 290.496094 449.15625 C 306.4375 449.15625 313.917969 439.332031 315.664062 434.421875 C 346.078125 434.421875 371.242188 455.472656 382.777344 470.207031 C 394.316406 484.945312 437.308594 562.832031 426.824219 594.410156 C 418.433594 619.671875 398.160156 623.53125 386.972656 621.777344 L 388.828125 655.261719 C 388.960938 657.65625 387.0625 659.667969 384.675781 659.667969 L 230.722656 659.667969 C 214.644531 660.71875 179.550781 661.140625 167.804688 654.40625 C 153.121094 645.984375 139.492188 602.832031 167.804688 517.574219 C 190.457031 449.367188 243.65625 433.71875 267.425781 434.421875 C 268.476562 439.332031 274.558594 449.15625 290.496094 449.15625 Z M 290.496094 449.15625 " fill-opacity="1" fill-rule="nonzero"/><path fill="#032068" d="M 214.132812 659.730469 C 188.851562 628.804688 162.121094 617.769531 151.917969 616.117188 C 151.917969 626.03125 156.855469 644.863281 165.742188 653.785156 C 172.851562 660.921875 200.964844 660.722656 214.132812 659.730469 Z M 214.132812 659.730469 " fill-opacity="1" fill-rule="nonzero"/><path fill="#032068" d="M 409.667969 618.101562 C 426.257812 611.757812 429.089844 589.023438 428.429688 578.453125 C 413.417969 585.589844 393.207031 609.839844 384.976562 621.074219 C 386.292969 622.726562 393.078125 624.445312 409.667969 618.101562 Z M 409.667969 618.101562 " fill-opacity="1" fill-rule="nonzero"/><path fill="#032068" d="M 288.402344 545.992188 C 281.0625 549.152344 226.53125 574.761719 201.363281 587.042969 C 204.507812 581.78125 217.09375 573.359375 220.238281 570.203125 C 223.382812 567.042969 234.917969 530.203125 234.917969 535.46875 C 234.917969 540.730469 228.628906 564.9375 231.773438 564.9375 C 234.917969 564.9375 278.964844 545.992188 288.402344 545.992188 Z M 288.402344 545.992188 " fill-opacity="1" fill-rule="nonzero"/><path fill="#032068" d="M 310.421875 576.515625 C 265.960938 636.300781 229.675781 657.5625 217.09375 660.722656 L 239.113281 660.722656 C 276.867188 631.25 302.382812 592.304688 310.421875 576.515625 Z M 310.421875 576.515625 " fill-opacity="1" fill-rule="nonzero"/><path fill="#032068" d="M 364.953125 565.992188 C 366.628906 586.199219 381.03125 611.601562 388.023438 621.777344 L 388.023438 631.25 C 372.082031 613.566406 366 580.375 364.953125 565.992188 Z M 364.953125 565.992188 " fill-opacity="1" fill-rule="nonzero"/><path fill="#032068" d="M 384.878906 537.574219 C 390.75 540.941406 401.304688 548.800781 405.851562 552.308594 L 389.070312 532.308594 C 388.234375 535.679688 385.925781 537.222656 384.878906 537.574219 Z M 384.878906 537.574219 " fill-opacity="1" fill-rule="nonzero"/><path fill="#ffffff" d="M 322.886719 498.738281 L 314.804688 577.835938 C 314.710938 578.757812 315.523438 579.511719 316.429688 579.347656 L 354.535156 572.484375 C 355.121094 572.378906 355.574219 571.910156 355.660156 571.316406 L 366.796875 496.132812 C 366.925781 495.253906 366.210938 494.476562 365.324219 494.539062 L 324.167969 497.492188 C 323.496094 497.539062 322.957031 498.066406 322.886719 498.738281 Z M 322.886719 498.738281 " fill-opacity="1" fill-rule="nonzero"/><path fill="#032068" d="M 365.226562 493.152344 C 366.996094 493.027344 368.425781 494.578125 368.167969 496.339844 L 357.03125 571.523438 C 356.855469 572.703125 355.949219 573.640625 354.777344 573.851562 L 316.671875 580.71875 C 314.859375 581.042969 313.238281 579.535156 313.425781 577.695312 L 321.507812 498.59375 C 321.644531 497.25 322.726562 496.199219 324.070312 496.105469 Z M 365.425781 495.929688 L 324.265625 498.878906 L 316.183594 577.980469 L 354.289062 571.113281 Z M 365.425781 495.929688 " fill-opacity="1" fill-rule="evenodd"/><path fill="#efcb96" d="M 377.535156 537.574219 L 364.953125 556.519531 C 348.175781 557.570312 345.027344 548.097656 348.175781 533.363281 C 350.691406 521.574219 360.058594 521.433594 363.90625 522.835938 L 366 514.417969 C 377.535156 523.890625 377.535156 533.011719 377.535156 537.574219 Z M 377.535156 537.574219 " fill-opacity="1" fill-rule="nonzero"/><path fill="#efcb96" d="M 304.128906 535.46875 C 301.613281 542.203125 296.789062 546.695312 294.691406 548.097656 L 308.324219 569.148438 C 312.519531 564.9375 317.761719 564.9375 329.296875 559.675781 C 340.835938 554.414062 343.980469 535.46875 340.835938 524.941406 C 338.316406 516.523438 323.707031 522.835938 317.761719 527.046875 L 318.8125 515.46875 C 311.472656 518.628906 307.277344 527.046875 304.128906 535.46875 Z M 304.128906 535.46875 " fill-opacity="1" fill-rule="nonzero"/><path fill="#ffffff" d="M 669.773438 338.421875 C 669.773438 366.570312 646.960938 389.390625 618.824219 389.390625 C 590.6875 389.390625 567.875 366.570312 567.875 338.421875 C 567.875 310.273438 590.6875 287.453125 618.824219 287.453125 C 646.960938 287.453125 669.773438 310.273438 669.773438 338.421875 Z M 669.773438 338.421875 " fill-opacity="1" fill-rule="nonzero"/><path fill="#032068" d="M 618.824219 288.707031 C 591.378906 288.707031 569.128906 310.964844 569.128906 338.421875 C 569.128906 365.878906 591.378906 388.136719 618.824219 388.136719 C 646.269531 388.136719 668.519531 365.878906 668.519531 338.421875 C 668.519531 310.964844 646.269531 288.707031 618.824219 288.707031 Z M 566.621094 338.421875 C 566.621094 309.582031 589.992188 286.199219 618.824219 286.199219 C 647.652344 286.199219 671.027344 309.582031 671.027344 338.421875 C 671.027344 367.261719 647.652344 390.644531 618.824219 390.644531 C 589.992188 390.644531 566.621094 367.261719 566.621094 338.421875 Z M 566.621094 338.421875 " fill-opacity="1" fill-rule="evenodd"/><path fill="#032068" d="M 619.425781 306.871094 C 609.710938 306.871094 601.835938 314.878906 601.835938 324.757812 L 601.835938 337.003906 C 601.835938 338.457031 603.015625 339.636719 604.46875 339.636719 C 605.917969 339.636719 607.097656 338.457031 607.097656 337.003906 L 607.097656 324.421875 C 607.097656 317.5 612.617188 311.886719 619.425781 311.886719 C 626.234375 311.886719 631.757812 317.5 631.757812 324.421875 L 631.757812 336.347656 C 631.757812 337.800781 632.933594 338.980469 634.386719 338.980469 C 635.839844 338.980469 637.015625 337.800781 637.015625 336.347656 L 637.015625 324.757812 C 637.015625 314.878906 629.140625 306.871094 619.425781 306.871094 Z M 619.425781 306.871094 " fill-opacity="1" fill-rule="evenodd"/><path fill="#f4ad5e" d="M 596.984375 337.328125 C 596.984375 335.25 598.667969 333.566406 600.742188 333.566406 L 638.109375 333.566406 C 640.183594 333.566406 641.867188 335.25 641.867188 337.328125 L 641.867188 365 C 641.867188 367.078125 640.183594 368.761719 638.109375 368.761719 L 600.742188 368.761719 C 598.667969 368.761719 596.984375 367.078125 596.984375 365 Z M 596.984375 337.328125 " fill-opacity="1" fill-rule="nonzero"/><path fill="#ffffff" d="M 622.289062 352.621094 C 623.328125 351.785156 623.992188 350.5 623.992188 349.058594 C 623.992188 346.535156 621.949219 344.488281 619.425781 344.488281 C 616.902344 344.488281 614.859375 346.535156 614.859375 349.058594 C 614.859375 350.628906 615.648438 352.011719 616.851562 352.835938 L 615.832031 357.117188 C 615.679688 357.753906 616.164062 358.367188 616.820312 358.367188 L 622.371094 358.367188 C 623.023438 358.367188 623.507812 357.753906 623.355469 357.117188 Z M 622.289062 352.621094 " fill-opacity="1" fill-rule="evenodd"/></svg>