<svg xmlns="http://www.w3.org/2000/svg" xmlns:xlink="http://www.w3.org/1999/xlink" width="1080" zoomAndPan="magnify" viewBox="0 0 810 809.999993" height="1080" preserveAspectRatio="xMidYMid meet" version="1.0"><defs><clipPath id="bc4c7a07c8"><path d="M 116 189 L 660 189 L 660 662.40625 L 116 662.40625 Z M 116 189 " clip-rule="nonzero"/></clipPath><clipPath id="b772d2de1f"><path d="M 385 355 L 702.53125 355 L 702.53125 662.40625 L 385 662.40625 Z M 385 355 " clip-rule="nonzero"/></clipPath></defs><rect x="-81" width="972" fill="#ffffff" y="-80.999999" height="971.999992" fill-opacity="1"/><rect x="-81" width="972" fill="#ffffff" y="-80.999999" height="971.999992" fill-opacity="1"/><rect x="-81" width="972" fill="#ffffff" y="-80.999999" height="971.999992" fill-opacity="1"/><g clip-path="url(#bc4c7a07c8)"><path fill="#f6836b" d="M 230.730469 662.195312 L 584.035156 662.195312 C 644.648438 662.195312 680.296875 594.230469 645.765625 544.515625 C 637.054688 531.96875 632.382812 517.066406 632.382812 501.804688 L 632.382812 388.175781 C 632.382812 334.902344 581.054688 296.605469 529.859375 311.683594 C 492.433594 322.707031 452.5 305.136719 435.410156 270.125 L 424 246.753906 C 398.519531 194.554688 334.53125 174.160156 283.457031 201.957031 L 179.34375 258.617188 C 133.425781 283.605469 119.039062 342.628906 148.328125 385.878906 L 168.527344 415.707031 C 187.582031 443.851562 177.6875 482.289062 147.402344 497.78125 C 118.300781 512.667969 107.808594 548.96875 124.492188 577.039062 L 146.722656 614.445312 C 164.316406 644.046875 196.246094 662.195312 230.730469 662.195312 Z M 230.730469 662.195312 " fill-opacity="1" fill-rule="nonzero"/></g><path fill="#f4ad5e" d="M 116.457031 161.285156 C 116.457031 154.984375 121.5625 149.878906 127.859375 149.878906 L 381.984375 149.878906 C 388.28125 149.878906 393.390625 154.984375 393.390625 161.285156 L 393.390625 415.429688 C 393.390625 421.730469 388.28125 426.835938 381.984375 426.835938 L 127.859375 426.835938 C 121.5625 426.835938 116.457031 421.730469 116.457031 415.429688 Z M 116.457031 161.285156 " fill-opacity="1" fill-rule="nonzero"/><path fill="#3f0071" d="M 114.746094 161.285156 C 114.746094 154.042969 120.617188 148.167969 127.859375 148.167969 L 381.984375 148.167969 C 389.226562 148.167969 395.097656 154.042969 395.097656 161.285156 L 395.097656 415.429688 C 395.097656 422.675781 389.226562 428.546875 381.984375 428.546875 L 127.859375 428.546875 C 120.617188 428.546875 114.746094 422.675781 114.746094 415.429688 Z M 127.859375 151.589844 C 122.503906 151.589844 118.164062 155.929688 118.164062 161.285156 L 118.164062 415.429688 C 118.164062 420.785156 122.503906 425.128906 127.859375 425.128906 L 381.984375 425.128906 C 387.339844 425.128906 391.679688 420.785156 391.679688 415.429688 L 391.679688 161.285156 C 391.679688 155.929688 387.339844 151.589844 381.984375 151.589844 Z M 127.859375 151.589844 " fill-opacity="1" fill-rule="evenodd"/><path fill="#3f0071" d="M 116.457031 161.285156 C 116.457031 154.984375 121.5625 149.878906 127.859375 149.878906 L 381.984375 149.878906 C 388.28125 149.878906 393.390625 154.984375 393.390625 161.285156 L 393.390625 189.199219 L 116.457031 189.199219 Z M 116.457031 161.285156 " fill-opacity="1" fill-rule="nonzero"/><path fill="#f4ad5e" d="M 152.535156 169.820312 C 152.535156 174.539062 148.710938 178.367188 143.992188 178.367188 C 139.273438 178.367188 135.445312 174.539062 135.445312 169.820312 C 135.445312 165.101562 139.273438 161.273438 143.992188 161.273438 C 148.710938 161.273438 152.535156 165.101562 152.535156 169.820312 Z M 152.535156 169.820312 " fill-opacity="1" fill-rule="nonzero"/><path fill="#f4ad5e" d="M 181.023438 169.820312 C 181.023438 174.539062 177.199219 178.367188 172.476562 178.367188 C 167.757812 178.367188 163.933594 174.539062 163.933594 169.820312 C 163.933594 165.101562 167.757812 161.273438 172.476562 161.273438 C 177.199219 161.273438 181.023438 165.101562 181.023438 169.820312 Z M 181.023438 169.820312 " fill-opacity="1" fill-rule="nonzero"/><path fill="#f4ad5e" d="M 209.503906 169.820312 C 209.503906 174.539062 205.675781 178.367188 200.957031 178.367188 C 196.238281 178.367188 192.414062 174.539062 192.414062 169.820312 C 192.414062 165.101562 196.238281 161.273438 200.957031 161.273438 C 205.675781 161.273438 209.503906 165.101562 209.503906 169.820312 Z M 209.503906 169.820312 " fill-opacity="1" fill-rule="nonzero"/><path fill="#3f0071" d="M 391.558594 353.53125 L 421.160156 329.78125 L 424.121094 327.40625 C 425.914062 325.96875 426.195312 323.359375 424.753906 321.574219 L 406.339844 298.777344 C 405.375 297.578125 403.824219 297.011719 402.308594 297.304688 L 398.386719 298.0625 C 396.871094 298.355469 395.320312 297.789062 394.351562 296.589844 L 385.625 285.78125 C 384.183594 283.996094 381.5625 283.714844 379.773438 285.152344 L 353.410156 306.300781 C 351.621094 307.734375 351.339844 310.347656 352.78125 312.132812 L 385.707031 352.898438 C 387.148438 354.683594 389.765625 354.96875 391.558594 353.53125 Z M 391.558594 353.53125 " fill-opacity="1" fill-rule="nonzero"/><path fill="#f4ad5e" d="M 379.324219 361.578125 C 385.238281 369.832031 393.058594 375.265625 396.71875 376.179688 L 412.28125 364.316406 C 411.546875 356.285156 408.316406 344.546875 406.789062 339.679688 L 393.972656 348.804688 C 393.058594 337.855469 388.480469 327.820312 383.902344 328.730469 C 380.242188 329.460938 381.15625 342.417969 382.070312 348.804688 L 371.085938 334.207031 C 369.253906 339.679688 370.171875 348.804688 379.324219 361.578125 Z M 379.324219 361.578125 " fill-opacity="1" fill-rule="nonzero"/><path fill="#3f0071" d="M 386.34375 330.964844 C 385.445312 330.148438 384.730469 329.976562 384.175781 330.085938 C 384.105469 330.101562 383.679688 330.28125 383.273438 331.664062 C 382.910156 332.910156 382.710938 334.660156 382.65625 336.683594 C 382.546875 340.707031 382.992188 345.460938 383.445312 348.609375 L 380.960938 349.632812 L 371.796875 337.457031 C 371.230469 342.578125 372.960938 350.320312 380.453125 360.777344 C 383.328125 364.789062 386.671875 368.117188 389.730469 370.550781 C 392.453125 372.714844 394.851562 374.085938 396.441406 374.648438 L 410.824219 363.6875 C 410.078125 356.734375 407.601562 347.257812 406.019531 341.925781 L 392.792969 351.34375 L 392.589844 348.921875 C 392.144531 343.578125 390.804688 338.503906 389.0625 334.921875 C 388.1875 333.125 387.25 331.785156 386.34375 330.964844 Z M 395.097656 346.304688 C 394.472656 341.566406 393.203125 337.101562 391.558594 333.714844 C 390.601562 331.75 389.480469 330.066406 388.210938 328.917969 C 386.9375 327.765625 385.363281 327.03125 383.628906 327.375 C 381.867188 327.726562 381.035156 329.4375 380.613281 330.890625 C 380.148438 332.476562 379.941406 334.503906 379.882812 336.609375 C 379.820312 338.96875 379.933594 341.546875 380.132812 343.921875 L 370.605469 331.265625 L 369.769531 333.769531 C 367.738281 339.832031 368.910156 349.425781 378.195312 362.382812 C 381.230469 366.621094 384.757812 370.136719 388 372.710938 C 391.203125 375.257812 394.261719 376.992188 396.382812 377.519531 L 397.03125 377.679688 L 413.730469 364.949219 L 413.664062 364.191406 C 412.914062 356.007812 409.644531 344.148438 408.113281 339.265625 L 407.542969 337.445312 Z M 395.097656 346.304688 " fill-opacity="1" fill-rule="evenodd"/><path fill="#f4ad5e" d="M 597.480469 420.695312 L 599.722656 441.808594 C 597.527344 444.300781 590.867188 449.152344 581.78125 448.617188 C 572.695312 448.078125 566.074219 442.441406 563.902344 439.691406 L 567.777344 418.9375 C 556.417969 418.265625 554.527344 405.914062 554.332031 394.539062 C 554.132812 383.164062 559.050781 344.984375 589.875 357.300781 C 614.535156 367.148438 605.21875 403.667969 597.480469 420.695312 Z M 597.480469 420.695312 " fill-opacity="1" fill-rule="nonzero"/><path fill="#3f0071" d="M 571.832031 357.597656 C 576.207031 355.746094 581.902344 355.605469 589.359375 358.582031 C 600.90625 363.195312 604.652344 374.039062 604.441406 386.28125 C 604.234375 398.519531 600.039062 411.714844 596.21875 420.125 L 596.0625 420.46875 L 598.277344 441.328125 C 595.9375 443.679688 589.914062 447.710938 581.863281 447.238281 C 573.78125 446.757812 567.734375 441.980469 565.386719 439.304688 L 569.425781 417.652344 L 567.859375 417.558594 C 565.285156 417.40625 563.316406 416.601562 561.78125 415.367188 C 560.230469 414.121094 559.046875 412.371094 558.148438 410.222656 C 556.339844 405.886719 555.816406 400.183594 555.71875 394.515625 C 555.621094 388.941406 556.792969 376.824219 561.695312 367.6875 C 564.132812 363.140625 567.429688 359.457031 571.832031 357.597656 Z M 559.25 366.382812 C 554.035156 376.101562 552.847656 388.757812 552.945312 394.5625 C 553.042969 400.273438 553.5625 406.433594 555.585938 411.285156 C 556.609375 413.730469 558.035156 415.90625 560.039062 417.519531 C 561.710938 418.863281 563.730469 419.773438 566.136719 420.152344 L 562.425781 440.054688 L 562.8125 440.546875 C 565.15625 443.515625 572.109375 449.429688 581.699219 449.996094 C 591.304688 450.5625 598.355469 445.457031 600.765625 442.722656 L 601.167969 442.265625 L 598.898438 420.921875 C 602.773438 412.285156 607 398.898438 607.214844 386.328125 C 607.433594 373.59375 603.507812 361.253906 590.394531 356.015625 C 582.4375 352.839844 575.960938 352.847656 570.75 355.050781 C 565.566406 357.242188 561.867188 361.503906 559.25 366.382812 Z M 559.25 366.382812 " fill-opacity="1" fill-rule="evenodd"/><path fill="#3f0071" d="M 573.847656 405.3125 L 576.507812 419.460938 C 589.457031 422.847656 593.824219 423.105469 599.222656 420.800781 C 604.621094 418.496094 613.175781 392.773438 614.832031 379.757812 C 616.488281 366.742188 605.390625 361.714844 599.433594 358.738281 C 564.613281 325.207031 545.78125 346.824219 546.851562 358.253906 C 547.707031 367.398438 561.144531 373.378906 567.757812 375.226562 C 568.574219 381.105469 570.546875 393.050781 571.902344 393.832031 C 573.601562 394.808594 576.847656 384.507812 581.671875 391.785156 C 585.53125 397.609375 578.0625 403.230469 573.847656 405.3125 Z M 573.847656 405.3125 " fill-opacity="1" fill-rule="nonzero"/><path fill="#f4ad5e" d="M 654.59375 459.398438 C 630.082031 434.265625 600.316406 434.964844 572.300781 434.964844 C 558.324219 435.78125 527.210938 436.375 514.605469 432.1875 C 498.847656 426.953125 474.335938 418.226562 466.457031 411.246094 C 458.578125 404.265625 427.058594 359.761719 418.304688 357.144531 C 409.550781 354.527344 386.789062 372.851562 386.789062 378.960938 C 386.789062 385.066406 418.136719 456.621094 431.351562 469.710938 C 444.570312 482.796875 485.714844 511.59375 492.71875 515.957031 C 491.199219 525.078125 488 549.050781 487.382812 571.960938 C 486.398438 596.234375 485.582031 642.328125 488.703125 660.8125 L 683.5625 660.8125 C 691.140625 634.023438 701.644531 583.65625 700.996094 571.960938 C 700.117188 556.253906 685.234375 490.808594 654.59375 459.398438 Z M 654.59375 459.398438 " fill-opacity="1" fill-rule="nonzero"/><g clip-path="url(#b772d2de1f)"><path fill="#3f0071" d="M 410.238281 359.859375 C 413.554688 358.433594 416.21875 357.964844 417.90625 358.46875 C 418.691406 358.703125 419.949219 359.503906 421.65625 360.980469 C 423.316406 362.410156 425.257812 364.351562 427.394531 366.65625 C 431.667969 371.269531 436.652344 377.265625 441.628906 383.425781 C 444.113281 386.503906 446.59375 389.613281 448.980469 392.609375 L 449.210938 392.902344 C 451.511719 395.789062 453.722656 398.566406 455.757812 401.082031 C 459.929688 406.242188 463.457031 410.4375 465.535156 412.277344 C 467.632812 414.140625 470.765625 416.058594 474.449219 417.953125 C 478.152344 419.859375 482.488281 421.789062 487.050781 423.648438 C 496.175781 427.375 506.277344 430.878906 514.167969 433.5 C 520.691406 435.667969 531.820312 436.5625 542.90625 436.835938 C 554.03125 437.109375 565.320312 436.757812 572.34375 436.347656 C 573.019531 436.347656 573.699219 436.34375 574.378906 436.34375 C 601.839844 436.328125 630.144531 436.3125 653.601562 460.359375 C 668.703125 475.84375 680.003906 499.828125 687.644531 522.019531 C 695.28125 544.207031 699.179688 564.359375 699.609375 572.039062 C 699.761719 574.800781 699.253906 580.007812 698.238281 586.808594 C 697.230469 593.5625 695.746094 601.765625 694.003906 610.453125 C 690.601562 627.398438 686.226562 646.128906 682.507812 659.429688 L 489.886719 659.429688 C 488.484375 650.152344 487.949219 634.738281 487.890625 618.550781 C 487.828125 601.707031 488.277344 584.136719 488.769531 572.019531 L 488.769531 572 C 489.386719 549.171875 492.574219 525.265625 494.085938 516.183594 L 494.238281 515.273438 L 493.453125 514.785156 C 490 512.632812 477.996094 504.371094 465.1875 494.992188 C 452.359375 485.601562 438.855469 475.1875 432.332031 468.730469 C 429.1875 465.617188 424.835938 458.859375 420.027344 450.199219 C 415.25 441.589844 410.109375 431.257812 405.371094 421.132812 C 400.636719 411.007812 396.316406 401.101562 393.179688 393.359375 C 391.613281 389.484375 390.34375 386.160156 389.472656 383.625 C 389.039062 382.359375 388.707031 381.304688 388.484375 380.480469 C 388.25 379.617188 388.175781 379.136719 388.175781 378.960938 C 388.175781 378.570312 388.378906 377.875 388.980469 376.863281 C 389.558594 375.886719 390.417969 374.753906 391.515625 373.527344 C 393.710938 371.074219 396.757812 368.355469 400.089844 365.890625 C 403.425781 363.421875 406.996094 361.25 410.238281 359.859375 Z M 386.589844 375.457031 C 385.910156 376.605469 385.402344 377.820312 385.402344 378.960938 C 385.402344 379.542969 385.574219 380.339844 385.804688 381.199219 C 386.050781 382.105469 386.402344 383.226562 386.851562 384.523438 C 387.742188 387.121094 389.03125 390.496094 390.609375 394.394531 C 393.761719 402.1875 398.105469 412.136719 402.859375 422.300781 C 407.609375 432.460938 412.78125 442.855469 417.601562 451.535156 C 422.390625 460.164062 426.914062 467.257812 430.375 470.691406 C 437.070312 477.320312 450.742188 487.851562 463.542969 497.21875 C 475.542969 506.003906 486.890625 513.855469 491.203125 516.632812 C 489.625 526.398438 486.597656 549.644531 485.996094 571.914062 C 485.503906 584.066406 485.054688 601.675781 485.117188 618.5625 C 485.179688 635.417969 485.75 651.671875 487.335938 661.039062 L 487.53125 662.191406 L 684.609375 662.191406 L 684.898438 661.1875 C 688.699219 647.75 693.226562 628.421875 696.722656 610.996094 C 698.472656 602.28125 699.96875 594.027344 700.980469 587.214844 C 701.992188 580.445312 702.550781 574.96875 702.378906 571.886719 C 701.929688 563.859375 697.949219 543.4375 690.265625 521.121094 C 682.585938 498.808594 671.125 474.359375 655.589844 458.433594 C 631.304688 433.539062 601.914062 433.558594 574.640625 433.578125 C 573.859375 433.578125 573.078125 433.582031 572.300781 433.582031 L 572.21875 433.582031 C 565.261719 433.992188 554.027344 434.34375 542.972656 434.070312 C 531.855469 433.796875 521.125 432.898438 515.042969 430.875 C 507.175781 428.261719 497.140625 424.78125 488.101562 421.089844 C 483.582031 419.246094 479.328125 417.355469 475.722656 415.496094 C 472.101562 413.632812 469.214844 411.839844 467.375 410.210938 C 465.511719 408.5625 462.144531 404.578125 457.917969 399.347656 C 455.890625 396.839844 453.6875 394.074219 451.386719 391.183594 L 451.152344 390.890625 C 448.765625 387.894531 446.28125 384.777344 443.789062 381.691406 C 438.808594 375.523438 433.777344 369.46875 429.433594 364.78125 C 427.261719 362.441406 425.242188 360.417969 423.472656 358.890625 C 421.75 357.402344 420.105469 356.238281 418.703125 355.820312 C 416.011719 355.015625 412.550781 355.855469 409.136719 357.320312 C 405.648438 358.816406 401.886719 361.117188 398.4375 363.667969 C 394.988281 366.222656 391.792969 369.066406 389.445312 371.683594 C 388.277344 372.992188 387.289062 374.273438 386.589844 375.457031 Z M 386.589844 375.457031 " fill-opacity="1" fill-rule="evenodd"/></g><path fill="#3f0071" d="M 449.820312 485.414062 C 441.417969 454.699219 423.558594 446.441406 415.679688 446.148438 C 418.597656 451.386719 425.484375 463.253906 429.6875 468.835938 C 433.886719 474.421875 444.859375 482.21875 449.820312 485.414062 Z M 449.820312 485.414062 " fill-opacity="1" fill-rule="nonzero"/><path fill="#3f0071" d="M 695.742188 608.613281 C 685.9375 577.199219 691.65625 554.21875 695.742188 546.65625 C 697.199219 550.730469 700.292969 561.492188 700.992188 571.960938 C 701.695312 582.433594 697.785156 600.757812 695.742188 608.613281 Z M 695.742188 608.613281 " fill-opacity="1" fill-rule="nonzero"/><path fill="#3f0071" d="M 670.351562 518.734375 C 680.5 562.164062 679.921875 623.894531 677.722656 660.8125 L 671.417969 660.8125 C 675.492188 582.933594 672.519531 534.128906 670.351562 518.734375 Z M 670.351562 518.734375 " fill-opacity="1" fill-rule="nonzero"/><path fill="#f4ad5e" d="M 268.808594 238.738281 L 270.277344 256.09375 C 271.011719 264.773438 262.484375 273.296875 243.753906 269.851562 C 228.769531 267.089844 229.089844 252.652344 231.121094 245.78125 L 238.304688 227.6875 C 235.246094 223.242188 232.664062 220.4375 235.964844 202.40625 C 240.089844 179.867188 253.589844 173.808594 267.824219 176.429688 C 282.058594 179.046875 291.847656 193.261719 287.855469 215.0625 C 284.417969 233.84375 273.328125 238.015625 268.808594 238.738281 Z M 268.808594 238.738281 " fill-opacity="1" fill-rule="nonzero"/><path fill="#3f0071" d="M 283.515625 189.210938 C 287.058594 195.488281 288.5 204.15625 286.546875 214.824219 C 284.875 223.96875 281.363281 229.433594 277.835938 232.691406 C 274.296875 235.964844 270.648438 237.09375 268.601562 237.421875 L 267.378906 237.613281 L 268.953125 256.207031 C 269.277344 260.035156 267.578125 263.867188 263.601562 266.390625 C 259.59375 268.941406 253.152344 270.222656 243.992188 268.539062 C 237.007812 267.253906 233.722656 263.320312 232.324219 258.949219 C 230.898438 254.492188 231.425781 249.484375 232.378906 246.214844 L 239.804688 227.515625 L 239.402344 226.929688 C 239.285156 226.757812 239.167969 226.589844 239.054688 226.429688 C 237.671875 224.429688 236.578125 222.851562 236.0625 219.910156 C 235.488281 216.640625 235.628906 211.621094 237.273438 202.644531 C 239.292969 191.601562 243.570312 184.816406 248.867188 181.074219 C 254.167969 177.328125 260.710938 176.476562 267.582031 177.742188 C 274.3125 178.980469 279.980469 182.945312 283.515625 189.210938 Z M 285.832031 187.894531 C 281.910156 180.945312 275.570312 176.496094 268.0625 175.117188 C 260.699219 173.761719 253.375 174.625 247.335938 178.890625 C 241.296875 183.15625 236.757812 190.667969 234.65625 202.164062 C 232.996094 211.21875 232.78125 216.617188 233.441406 220.371094 C 234.054688 223.867188 235.421875 225.871094 236.804688 227.859375 L 229.863281 245.34375 L 229.847656 245.402344 C 228.777344 249.007812 228.144531 254.621094 229.789062 259.765625 C 231.46875 265.023438 235.511719 269.691406 243.511719 271.164062 C 253.082031 272.925781 260.269531 271.667969 265.027344 268.648438 C 269.816406 265.601562 272.015625 260.828125 271.605469 255.980469 L 270.234375 239.8125 C 272.730469 239.214844 276.246094 237.792969 279.640625 234.65625 C 283.648438 230.953125 287.402344 224.941406 289.164062 215.304688 C 291.203125 204.167969 289.746094 194.832031 285.832031 187.894531 Z M 285.832031 187.894531 " fill-opacity="1" fill-rule="evenodd"/><path fill="#3f0071" d="M 300.453125 180.105469 C 315.484375 195.296875 296.925781 212.074219 308.410156 229.71875 C 314.160156 238.554688 313.863281 253.707031 312.515625 263.203125 C 305.238281 257.726562 292.882812 249.695312 269.652344 246.773438 L 268.8125 238.738281 C 277.464844 238 284.085938 231.453125 287.996094 214.3125 C 291.128906 200.597656 286.015625 189.871094 283.070312 186.222656 C 271.222656 183.265625 262.480469 197.1875 257.632812 202.507812 C 253.753906 206.765625 251.65625 205.550781 251.089844 204.410156 C 248.992188 194.707031 242.386719 192.714844 239.101562 202.203125 C 236.472656 209.796875 241.441406 214.804688 244.257812 216.355469 L 231.261719 245.027344 L 229.691406 250.425781 C 229.085938 250.105469 227.691406 248.925781 226.960938 246.773438 C 220.289062 247.382812 203.480469 250.792969 189.644531 259.554688 C 189.828125 256.488281 190.34375 249.359375 190.929688 245.371094 C 194.625 220.304688 213.328125 216.097656 222.070312 202.175781 C 230.8125 188.253906 223.949219 179.222656 231.730469 170.558594 C 237.496094 164.140625 245.976562 164.640625 251.496094 164.101562 C 257.015625 163.566406 261.113281 158.105469 267.65625 156.207031 C 278.832031 154.378906 287.125 165.484375 288.679688 172.5 C 290.476562 172.574219 295.339844 174.191406 300.453125 180.105469 Z M 300.453125 180.105469 " fill-opacity="1" fill-rule="nonzero"/><path fill="#3f0071" d="M 253.214844 235.09375 C 261.765625 239.152344 267.175781 239.214844 268.808594 238.738281 L 269.542969 247.417969 C 259.734375 246.855469 254.570312 238.964844 253.214844 235.09375 Z M 253.214844 235.09375 " fill-opacity="1" fill-rule="nonzero"/><path fill="#f4ad5e" d="M 248.804688 257.726562 C 260.457031 257.726562 268.222656 250.425781 269.738281 246.773438 C 282.480469 247.992188 305.964844 254.261719 319.796875 269.59375 C 337.09375 288.761719 353.476562 367.257812 357.117188 377.300781 C 360.027344 385.332031 379.566406 414.722656 388.972656 428.414062 L 278.839844 428.414062 C 275.808594 436.019531 268.644531 451.050781 264.277344 450.320312 C 259.90625 449.589844 213.914062 435.410156 191.460938 428.414062 L 128.660156 428.414062 C 119.558594 415.632812 147.050781 323.230469 164.15625 287.847656 C 178.722656 257.726562 209.058594 248.296875 226.960938 246.773438 C 228.175781 250.425781 237.152344 257.726562 248.804688 257.726562 Z M 248.804688 257.726562 " fill-opacity="1" fill-rule="nonzero"/><path fill="#3f0071" d="M 268.886719 245.355469 L 269.867188 245.445312 C 276.355469 246.066406 285.535156 247.964844 294.847656 251.648438 C 304.15625 255.332031 313.683594 260.828125 320.785156 268.699219 C 325.285156 273.683594 329.621094 282.386719 333.652344 292.605469 C 337.699219 302.875 341.496094 314.84375 344.855469 326.5 C 348.21875 338.15625 351.152344 349.527344 353.46875 358.597656 C 353.671875 359.386719 353.867188 360.152344 354.058594 360.902344 C 356.085938 368.847656 357.5625 374.621094 358.367188 376.84375 C 359.046875 378.722656 360.753906 381.964844 363.148438 386.074219 C 365.523438 390.152344 368.523438 394.988281 371.730469 400.015625 C 378.144531 410.0625 385.371094 420.820312 390.070312 427.65625 L 391.503906 429.75 L 279.738281 429.75 C 278.179688 433.550781 275.773438 438.804688 273.207031 443.171875 C 271.828125 445.511719 270.371094 447.65625 268.941406 449.1875 C 268.226562 449.953125 267.472656 450.613281 266.695312 451.058594 C 265.917969 451.503906 265.011719 451.796875 264.058594 451.636719 C 262.867188 451.4375 259.070312 450.378906 253.84375 448.855469 C 248.558594 447.3125 241.691406 445.25 234.265625 442.996094 C 219.496094 438.507812 202.492188 433.246094 191.261719 429.75 L 127.976562 429.75 L 127.578125 429.1875 C 126.1875 427.234375 125.628906 424.027344 125.539062 420.1875 C 125.453125 416.265625 125.855469 411.386719 126.644531 405.847656 C 128.21875 394.757812 131.351562 380.84375 135.296875 366.257812 C 143.179688 337.097656 154.355469 305.0625 162.960938 287.269531 C 177.816406 256.546875 208.714844 246.988281 226.847656 245.445312 L 227.890625 245.355469 L 228.222656 246.355469 C 228.429688 246.980469 229.054688 247.945312 230.1875 249.082031 C 231.296875 250.195312 232.804688 251.382812 234.644531 252.472656 C 238.328125 254.652344 243.253906 256.394531 248.804688 256.394531 C 254.347656 256.394531 258.957031 254.660156 262.359375 252.496094 C 265.808594 250.300781 267.894531 247.75 268.511719 246.261719 Z M 226.136719 248.191406 C 208.371094 249.9375 179.378906 259.425781 165.355469 288.433594 C 156.851562 306.019531 145.726562 337.875 137.863281 366.957031 C 133.933594 381.492188 130.832031 395.285156 129.277344 406.222656 C 128.5 411.695312 128.117188 416.410156 128.203125 420.125 C 128.273438 423.417969 128.714844 425.71875 129.410156 427.078125 L 191.664062 427.078125 L 191.859375 427.140625 C 203.082031 430.636719 220.1875 435.929688 235.035156 440.441406 C 242.460938 442.695312 249.316406 444.753906 254.585938 446.292969 C 259.910156 447.847656 263.503906 448.835938 264.496094 449.003906 C 264.632812 449.027344 264.910156 449.007812 265.371094 448.742188 C 265.835938 448.476562 266.382812 448.023438 267 447.359375 C 268.234375 446.042969 269.574219 444.089844 270.914062 441.816406 C 273.582031 437.277344 276.105469 431.683594 277.605469 427.917969 L 277.941406 427.078125 L 386.445312 427.078125 C 381.777344 420.238281 375.304688 410.558594 369.488281 401.453125 C 366.273438 396.414062 363.253906 391.542969 360.851562 387.421875 C 358.46875 383.332031 356.640625 379.894531 355.867188 377.753906 C 355.011719 375.402344 353.507812 369.507812 351.515625 361.695312 C 351.3125 360.902344 351.105469 360.089844 350.890625 359.261719 C 348.574219 350.191406 345.648438 338.855469 342.300781 327.242188 C 338.949219 315.621094 335.179688 303.742188 331.175781 293.589844 C 327.15625 283.386719 322.960938 275.085938 318.8125 270.488281 C 312.078125 263.023438 302.949219 257.722656 293.871094 254.132812 C 285.230469 250.714844 276.710938 248.878906 270.519531 248.195312 C 269.359375 250.226562 267.011719 252.695312 263.785156 254.746094 C 260.011719 257.148438 254.914062 259.0625 248.804688 259.0625 C 242.703125 259.0625 237.316406 257.152344 233.292969 254.769531 C 231.28125 253.578125 229.589844 252.253906 228.304688 250.96875 C 227.390625 250.050781 226.632812 249.101562 226.136719 248.191406 Z M 226.136719 248.191406 " fill-opacity="1" fill-rule="evenodd"/><path fill="#3f0071" d="M 224.230469 377.300781 C 219.863281 369.996094 215.128906 338.355469 213.308594 323.445312 C 215.875 338.355469 224.792969 367.558594 228.78125 374.5625 C 232.421875 380.949219 277.933594 411.984375 281.574219 419.285156 C 274.964844 413.808594 229.691406 386.425781 224.230469 377.300781 Z M 224.230469 377.300781 " fill-opacity="1" fill-rule="nonzero"/><path fill="#3f0071" d="M 152.328125 360.871094 C 155.359375 377.605469 167.617188 414.539062 192.375 428.414062 C 182.96875 418.984375 161.792969 392.269531 152.328125 360.871094 Z M 152.328125 360.871094 " fill-opacity="1" fill-rule="nonzero"/><path fill="#3f0071" d="M 349.835938 428.414062 L 324.351562 321.621094 L 356.207031 428.414062 Z M 349.835938 428.414062 " fill-opacity="1" fill-rule="nonzero"/><path fill="#3f0071" d="M 344.21875 471.941406 L 365.148438 440.226562 L 367.316406 436.945312 C 368.53125 435.101562 368.027344 432.617188 366.191406 431.398438 L 341.652344 415.105469 C 340.417969 414.285156 338.835938 414.214844 337.535156 414.925781 L 333.894531 416.917969 C 332.597656 417.628906 331.011719 417.558594 329.777344 416.742188 L 318.046875 408.949219 C 316.207031 407.726562 313.730469 408.230469 312.511719 410.074219 L 293.785156 438.449219 C 292.570312 440.292969 293.074219 442.777344 294.914062 443.996094 L 338.6875 473.0625 C 340.527344 474.285156 343.003906 473.78125 344.21875 471.941406 Z M 344.21875 471.941406 " fill-opacity="1" fill-rule="nonzero"/><path fill="#f4ad5e" d="M 310.699219 453.058594 C 296.136719 460.359375 277.933594 451.84375 269.742188 445.753906 C 273.105469 441.082031 274.972656 437.347656 277.933594 430.238281 C 281.875 432.367188 287.761719 432.066406 290.675781 432.066406 C 294.316406 432.066406 302.507812 430.238281 306.148438 430.238281 C 309.789062 430.238281 313.429688 432.066406 310.699219 435.714844 C 308.515625 438.636719 300.6875 442.410156 297.046875 443.929688 Z M 310.699219 453.058594 " fill-opacity="1" fill-rule="nonzero"/><path fill="#3f0071" d="M 277.269531 428.367188 L 278.5625 429.0625 C 280.296875 430 282.535156 430.4375 284.800781 430.621094 C 286.582031 430.765625 288.273438 430.75 289.652344 430.738281 C 290.015625 430.734375 290.359375 430.730469 290.675781 430.730469 C 292.367188 430.730469 295.199219 430.296875 298.207031 429.832031 L 298.324219 429.816406 C 301.195312 429.371094 304.226562 428.90625 306.148438 428.90625 C 308.105469 428.90625 310.316406 429.382812 311.695312 430.609375 C 312.429688 431.265625 312.960938 432.167969 312.984375 433.292969 C 313.003906 434.375 312.550781 435.460938 311.765625 436.515625 C 311.09375 437.410156 310.066406 438.289062 308.929688 439.101562 C 307.777344 439.929688 306.433594 440.75 305.066406 441.511719 C 303.273438 442.515625 301.402344 443.4375 299.808594 444.171875 L 313.34375 453.222656 L 311.292969 454.25 C 303.617188 458.101562 295.0625 457.742188 287.488281 455.714844 C 279.910156 453.6875 273.160156 449.957031 268.949219 446.828125 L 267.894531 446.042969 L 268.660156 444.976562 C 271.941406 440.417969 273.765625 436.789062 276.703125 429.726562 Z M 298.5 432.488281 C 295.628906 432.929688 292.597656 433.398438 290.675781 433.398438 C 290.394531 433.398438 290.078125 433.402344 289.734375 433.40625 C 288.351562 433.417969 286.503906 433.4375 284.582031 433.28125 C 282.648438 433.121094 280.535156 432.78125 278.625 432.027344 C 276.164062 437.855469 274.375 441.417969 271.59375 445.441406 C 275.605469 448.230469 281.570312 451.371094 288.171875 453.136719 C 294.644531 454.867188 301.605469 455.25 307.941406 452.816406 L 294.238281 443.65625 L 296.535156 442.699219 C 298.320312 441.953125 301.140625 440.652344 303.773438 439.183594 C 305.089844 438.445312 306.339844 437.683594 307.382812 436.933594 C 308.445312 436.171875 309.210938 435.480469 309.636719 434.914062 C 310.210938 434.144531 310.328125 433.632812 310.320312 433.347656 C 310.316406 433.101562 310.21875 432.863281 309.929688 432.605469 C 309.261719 432.011719 307.832031 431.574219 306.148438 431.574219 C 304.457031 431.574219 301.625 432.007812 298.613281 432.46875 Z M 298.5 432.488281 " fill-opacity="1" fill-rule="evenodd"/><path fill="#3f0071" d="M 200.566406 431.152344 C 187.460938 398.292969 170.226562 388.859375 163.25 388.253906 C 164.464844 393.121094 169.4375 405.59375 179.632812 416.546875 C 189.828125 427.5 197.835938 430.847656 200.566406 431.152344 Z M 200.566406 431.152344 " fill-opacity="1" fill-rule="nonzero"/><path fill="#f4ad5e" d="M 578.675781 282.828125 L 578.675781 168.078125 C 578.675781 163.878906 575.253906 160.472656 571.035156 160.472656 L 493.386719 160.472656 C 491.359375 160.472656 489.417969 161.277344 487.984375 162.703125 L 472.546875 178.0625 C 471.113281 179.488281 470.308594 181.421875 470.308594 183.441406 L 470.308594 282.828125 C 470.308594 287.027344 473.730469 290.433594 477.949219 290.433594 L 571.035156 290.433594 C 575.253906 290.433594 578.675781 287.027344 578.675781 282.828125 Z M 578.675781 282.828125 " fill-opacity="1" fill-rule="nonzero"/><path fill="#3f0071" d="M 486.902344 161.625 C 488.621094 159.914062 490.957031 158.953125 493.386719 158.953125 L 571.035156 158.953125 C 576.097656 158.953125 580.203125 163.039062 580.203125 168.078125 L 580.203125 282.828125 C 580.203125 287.867188 576.097656 291.953125 571.035156 291.953125 L 477.949219 291.953125 C 472.886719 291.953125 468.78125 287.867188 468.78125 282.828125 L 468.78125 183.441406 C 468.78125 181.019531 469.746094 178.699219 471.46875 176.988281 Z M 493.386719 161.996094 C 491.765625 161.996094 490.210938 162.636719 489.066406 163.777344 L 473.628906 179.140625 C 472.480469 180.28125 471.835938 181.828125 471.835938 183.441406 L 471.835938 282.828125 C 471.835938 286.1875 474.574219 288.910156 477.949219 288.910156 L 571.035156 288.910156 C 574.410156 288.910156 577.144531 286.1875 577.144531 282.828125 L 577.144531 168.078125 C 577.144531 164.71875 574.410156 161.996094 571.035156 161.996094 Z M 493.386719 161.996094 " fill-opacity="1" fill-rule="evenodd"/><path fill="#3f0071" d="M 470.773438 180.289062 L 490.683594 160.472656 L 490.683594 175.726562 C 490.683594 178.246094 488.632812 180.289062 486.101562 180.289062 Z M 470.773438 180.289062 " fill-opacity="1" fill-rule="nonzero"/><path fill="#f6836b" d="M 517.082031 187.339844 L 493.003906 187.339844 L 493.003906 184.300781 L 517.082031 184.300781 Z M 554.132812 209.460938 L 493.003906 209.460938 L 493.003906 206.421875 L 554.132812 206.421875 Z M 554.132812 228.355469 L 493.003906 228.355469 L 493.003906 225.316406 L 554.132812 225.316406 Z M 554.132812 247.710938 L 493.003906 247.710938 L 493.003906 244.671875 L 554.132812 244.671875 Z M 543.019531 265.683594 L 493.003906 265.683594 L 493.003906 262.640625 L 543.019531 262.640625 Z M 543.019531 265.683594 " fill-opacity="1" fill-rule="evenodd"/><path fill="#f4ad5e" d="M 172.511719 543.902344 L 172.984375 549.058594 C 173.011719 549.371094 172.863281 549.683594 172.597656 549.863281 L 169.203125 552.15625 C 168.472656 552.648438 168.832031 553.765625 169.699219 553.695312 L 173.796875 553.359375 C 174.09375 553.335938 174.378906 553.472656 174.542969 553.714844 L 176.988281 557.363281 C 177.449219 558.050781 178.542969 557.683594 178.546875 556.84375 L 178.558594 552.195312 C 178.558594 551.921875 178.691406 551.660156 178.914062 551.496094 L 181.953125 549.21875 C 182.640625 548.707031 182.273438 547.644531 181.433594 547.703125 L 177.785156 547.972656 C 177.492188 547.996094 177.214844 547.863281 177.050781 547.628906 L 174.058594 543.292969 C 173.570312 542.585938 172.429688 543.03125 172.511719 543.902344 Z M 172.511719 543.902344 " fill-opacity="1" fill-rule="nonzero"/><path fill="#f6836b" d="M 638.996094 296.15625 L 640.429688 303.847656 C 640.519531 304.3125 640.339844 304.785156 639.964844 305.066406 L 635.199219 308.664062 C 634.171875 309.4375 634.867188 311.089844 636.15625 310.941406 L 642.25 310.238281 C 642.695312 310.1875 643.136719 310.375 643.417969 310.730469 L 647.597656 316.066406 C 648.382812 317.070312 649.972656 316.472656 649.859375 315.214844 L 649.222656 308.261719 C 649.1875 307.851562 649.347656 307.457031 649.660156 307.199219 L 653.898438 303.644531 C 654.851562 302.84375 654.152344 301.269531 652.902344 301.40625 L 647.472656 301.988281 C 647.035156 302.035156 646.601562 301.851562 646.324219 301.507812 L 641.230469 295.175781 C 640.398438 294.140625 638.757812 294.863281 638.996094 296.15625 Z M 638.996094 296.15625 " fill-opacity="1" fill-rule="nonzero"/><path fill="#3f0071" d="M 447.792969 337.5 C 447.0625 336.828125 447.019531 335.691406 447.691406 334.960938 L 458.671875 323.082031 C 459.347656 322.355469 460.484375 322.308594 461.214844 322.984375 C 461.941406 323.65625 461.988281 324.792969 461.3125 325.523438 L 452.347656 335.21875 L 452.300781 336.777344 L 462.109375 345.84375 C 462.839844 346.515625 462.882812 347.652344 462.207031 348.382812 C 461.535156 349.109375 460.398438 349.15625 459.667969 348.480469 Z M 465.058594 339.640625 C 462.84375 339.144531 460.707031 338.769531 458.6875 338.5 L 459.160156 334.9375 C 461.285156 335.21875 463.527344 335.613281 465.847656 336.132812 Z M 477.375 343.5625 C 475.335938 342.710938 473.300781 341.96875 471.300781 341.332031 L 472.390625 337.910156 C 474.488281 338.574219 476.621094 339.351562 478.761719 340.246094 Z M 488.757812 349.625 C 486.9375 348.417969 485.082031 347.320312 483.214844 346.328125 L 484.902344 343.152344 C 486.867188 344.199219 488.820312 345.355469 490.746094 346.632812 Z M 498.683594 357.804688 C 497.15625 356.246094 495.570312 354.800781 493.941406 353.460938 L 496.222656 350.683594 C 497.945312 352.101562 499.628906 353.632812 501.25 355.285156 Z M 506.65625 367.886719 C 505.484375 366.027344 504.242188 364.277344 502.941406 362.628906 L 505.761719 360.402344 C 507.140625 362.148438 508.457031 364.003906 509.695312 365.972656 Z M 511.164062 376.4375 C 510.726562 375.4375 510.273438 374.464844 509.804688 373.511719 L 513.027344 371.917969 C 513.523438 372.921875 514 373.949219 514.460938 375.003906 Z M 511.164062 376.4375 " fill-opacity="1" fill-rule="evenodd"/><path fill="#3f0071" d="M 349.292969 503.519531 C 348.945312 502.347656 348.636719 501.214844 348.375 500.121094 L 351.867188 499.277344 C 352.113281 500.304688 352.402344 501.375 352.738281 502.484375 Z M 354.550781 516.554688 C 353.453125 514.382812 352.488281 512.246094 351.644531 510.171875 L 354.976562 508.820312 C 355.78125 510.804688 356.707031 512.851562 357.757812 514.933594 Z M 361.847656 528.527344 C 360.441406 526.589844 359.148438 524.632812 357.960938 522.683594 L 361.027344 520.8125 C 362.167969 522.683594 363.410156 524.558594 364.757812 526.417969 Z M 370.984375 539.179688 C 369.285156 537.507812 367.691406 535.789062 366.195312 534.039062 L 368.921875 531.699219 C 370.355469 533.375 371.882812 535.019531 373.507812 536.617188 Z M 381.820312 548.128906 C 379.851562 546.78125 377.980469 545.363281 376.199219 543.890625 L 378.492188 541.121094 C 380.191406 542.527344 381.976562 543.878906 383.851562 545.164062 Z M 446.4375 557.566406 C 447.234375 558.15625 447.40625 559.28125 446.8125 560.078125 L 437.191406 573.082031 C 436.601562 573.878906 435.476562 574.046875 434.679688 573.457031 C 433.882812 572.867188 433.714844 571.742188 434.304688 570.945312 L 442.054688 560.46875 L 441.832031 558.628906 L 431.296875 550.832031 C 430.5 550.242188 430.332031 549.117188 430.921875 548.320312 C 431.511719 547.523438 432.636719 547.351562 433.4375 547.941406 Z M 394.078125 554.988281 C 391.902344 554.019531 389.804688 552.964844 387.796875 551.839844 L 389.550781 548.703125 C 391.464844 549.773438 393.464844 550.777344 395.542969 551.707031 Z M 407.371094 559.53125 C 405.050781 558.960938 402.804688 558.296875 400.632812 557.558594 L 401.796875 554.15625 C 403.867188 554.863281 406.011719 555.496094 408.234375 556.042969 Z M 421.210938 561.757812 C 418.832031 561.566406 416.515625 561.285156 414.261719 560.925781 L 414.828125 557.375 C 416.988281 557.71875 419.210938 557.988281 421.503906 558.175781 Z M 435.207031 561.882812 C 432.824219 562.023438 430.496094 562.082031 428.222656 562.0625 L 428.253906 558.46875 C 430.441406 558.484375 432.691406 558.429688 434.996094 558.292969 Z M 435.207031 561.882812 " fill-opacity="1" fill-rule="evenodd"/><path fill="#3f0071" d="M 230.503906 587.117188 C 230.058594 620.976562 253.148438 649.5625 264.875 659.574219 L 282.84375 659.574219 C 269.484375 614.398438 247.398438 591.9375 235.019531 584.460938 C 232.960938 583.21875 230.535156 584.710938 230.503906 587.117188 Z M 230.503906 587.117188 " fill-opacity="1" fill-rule="nonzero"/><path fill="#f4ad5e" d="M 228.601562 476.03125 C 210.191406 545.261719 256.601562 627.253906 276.554688 657.777344 L 316.988281 657.777344 C 299.621094 527.15625 270.503906 495.410156 233.6875 473.957031 C 231.714844 472.804688 229.191406 473.820312 228.601562 476.03125 Z M 228.601562 476.03125 " fill-opacity="1" fill-rule="nonzero"/><path fill="#3f0071" d="M 232.785156 475.511719 C 231.8125 474.945312 230.617188 475.453125 230.339844 476.492188 C 221.269531 510.601562 228.144531 547.996094 239.882812 580.8125 C 251.410156 613.023438 267.546875 640.613281 277.527344 655.980469 L 314.9375 655.980469 C 306.292969 591.941406 294.800781 552.152344 281.039062 525.757812 C 267.179688 499.179688 250.972656 486.109375 232.785156 475.511719 Z M 226.867188 475.570312 C 227.765625 472.191406 231.613281 470.667969 234.59375 472.40625 C 253.222656 483.257812 269.980469 496.78125 284.226562 524.097656 C 298.421875 551.316406 310.078125 592.148438 318.773438 657.539062 L 319.042969 659.574219 L 275.582031 659.574219 L 275.050781 658.757812 C 265.027344 643.429688 248.359375 615.171875 236.5 582.027344 C 224.652344 548.910156 217.527344 510.695312 226.867188 475.570312 Z M 226.867188 475.570312 " fill-opacity="1" fill-rule="evenodd"/><path fill="#3f0071" d="M 293.800781 518.625 C 277.898438 576.636719 296.105469 636.929688 308.003906 659.574219 L 337.65625 659.574219 C 344.328125 588.867188 317.21875 537.453125 299.394531 517.238281 C 297.636719 515.242188 294.503906 516.058594 293.800781 518.625 Z M 293.800781 518.625 " fill-opacity="1" fill-rule="nonzero"/><path fill="#3f0071" d="M 253.777344 525.292969 L 244.101562 498.113281 L 240.714844 499.316406 L 262.875 561.574219 L 248.316406 557.203125 L 247.285156 560.648438 L 264.367188 565.777344 L 284.519531 622.398438 L 266.382812 615.652344 L 265.128906 619.019531 L 286.09375 626.816406 L 297.324219 658.378906 L 300.710938 657.171875 L 277.898438 593.074219 L 286.335938 569.414062 L 282.949219 568.207031 L 275.992188 587.71875 L 255.8125 531.019531 L 262.101562 510.015625 L 258.660156 508.984375 Z M 253.777344 525.292969 " fill-opacity="1" fill-rule="evenodd"/><path fill="#f4ad5e" d="M 308.964844 564.949219 L 304.382812 539.730469 L 300.84375 540.375 L 310.152344 591.5625 L 298.058594 585.191406 L 296.386719 588.375 L 310.96875 596.054688 L 318.949219 639.957031 L 308.953125 632.101562 L 306.730469 634.925781 L 319.917969 645.289062 L 322.410156 658.996094 L 325.949219 658.351562 L 319.554688 623.191406 L 330.097656 609.445312 L 327.246094 607.257812 L 318.6875 618.417969 L 309.769531 569.371094 L 318.308594 560.144531 L 315.671875 557.703125 Z M 308.964844 564.949219 " fill-opacity="1" fill-rule="evenodd"/></svg>